<?xml version="1.0" encoding="utf-8"?>
<svg version="1.0" width="1584.000000pt" height="1584.000000pt" viewBox="0 0 1584.000000 1584.000000" preserveAspectRatio="xMidYMid meet" xmlns="http://www.w3.org/2000/svg">
  <g transform="translate(0.000000,1584.000000) scale(0.100000,-0.100000)" fill="#59545f" stroke="none">
    <path d="M 7414 14427.998 C 7447.001 14109.998 7457 13929.996 7470 13410 C 7476 13181.998 7487 12852.999 7495 12680 C 7511 12330 7512.998 11854.996 7500 11564.996 C 7495 11460.986 7486 10864.999 7481 10241.999 C 7475 9618.999 7468.197 9115.556 7465.206 9099.703 L 7465.132 9099.31 L 7465.058 9098.916 L 7464.731 9098.682 L 7464.415 9098.455 C 7457.676 9093.721 7371.999 9090 7257 9090 C 6960 9090 6557.996 9073 6189.996 9045 C 6010.996 9031.998 5744 9014 5595 9005 C 5447 8996 5228 8983 5110 8975 C 4992 8967 4690 8949 4440 8934.998 C 3839 8901.999 3779.996 8897 3329.998 8839 C 3085.999 8807.998 2907 8790 2840 8790 C 2474 8790 1934 8676.998 1643.998 8538.999 C 1513.999 8477.999 1434.01 8393.94 1414.992 8299.956 C 1411.971 8280.942 1393.998 8244.998 1376.999 8220.999 C 1353 8186.998 1344.999 8162.987 1342 8118.993 C 1336 8041.992 1352.998 7998 1405.998 7952.001 C 1477.001 7889 1512.003 7883.986 1727 7904 C 2071 7935.999 2396 7943 3130 7934 C 4042 7922 5731 7926 6693.002 7940 C 7115.002 7947 7460.507 7949.946 7465.761 7947.169 L 7466.053 7947.015 L 7466.192 7946.71 C 7469.017 7940.495 7476 7252 7482 6409 C 7490 5216 7490 4717.999 7480 4167.998 C 7465 3310 7474 2928.998 7517 2694.996 C 7535 2594.996 7532 2496 7485 1751 C 7470.5 1526.5 7463.243 1415.252 7469.374 1350.502 C 7475.377 1285.737 7495.009 1267.491 7534.004 1228.995 C 7612.004 1150.996 7651.999 1128.001 7708 1127 C 7761 1126 7803.286 1142.466 7836.124 1177.625 C 7869.021 1212.73 7892.502 1266.516 7908.002 1340.01 L 7925 1425 L 7926.39 1425.208 L 7965.012 1431.002 C 7987.014 1434.006 8023.002 1445.996 8045 1457 C 8067 1467.999 8102.019 1483.003 8122.023 1489.007 C 8168.017 1504.02 8215 1557 8246 1627 C 8297 1742 8389 2098 8429 2335 C 8486 2672.999 8539 3176.002 8565 3623.002 C 8573 3765.002 8589 3954 8600 4043.002 C 8723 5055.002 8806 6354 8826 7562 L 8833 7978 L 8834.821 7978.134 L 8914.006 7984 C 8959.026 7987.002 9202 7994 9455 8000 C 9708 8006 10280.001 8022.999 10725.001 8040 C 11171.001 8056 11688 8074 11875 8079.999 C 12062 8086 12267 8095 12330 8100 C 12393 8105 12627 8114 12850 8120 C 13073 8125.998 13323 8135 13405.002 8140 C 13576.003 8151 13877 8193 13941.999 8216 C 13963.5 8223.5 14000.501 8243.749 14032.125 8263.625 C 14063.749 8283.497 14090 8302.999 14090 8309 C 14090 8312 14100.997 8326.997 14113.998 8340.996 C 14134.002 8362.999 14150.008 8368.001 14214.002 8374 C 14318.502 8383.5 14397.517 8408.726 14450.374 8449.249 C 14503.283 8489.707 14530 8545.501 14530 8616 C 14530 8688 14509.291 8741.296 14458.001 8784.25 C 14406.766 8827.269 14325 8860 14203 8891 C 13872 8975 13632 9000 13050 9010 C 12618 9018 12561.998 9021 12259.998 9054 C 11685 9116 11381 9130 10160 9151 C 9614 9160 8963.02 9158.002 8855.019 9147.002 C 8852.257 9146.749 8849.916 9145.66 8847.841 9145.458 C 8846.841 9145.381 8845.863 9145.582 8844.857 9146.181 L 8844.811 9146.213 C 8843.949 9146.867 8843.127 9147.931 8842.344 9149.64 C 8839.144 9156.789 8836.626 9175.063 8834 9219.125 C 8828.75 9307.25 8823 9498.501 8810 9910 C 8790 10558.001 8761 11114 8705 11900 C 8639 12822 8564 13379 8440.001 13867 C 8350 14223 8277.99 14362.001 8146.994 14430.003 C 8112.993 14448.003 8073.996 14473.016 8059.973 14485.025 C 8032.474 14510.518 7997.75 14523.03 7962.251 14522.75 C 7926.751 14522.529 7890.48 14509.475 7859.983 14483.985 C 7851.989 14476.992 7844.499 14471.503 7839.001 14468.375 C 7836.251 14466.816 7834.042 14465.877 7832.477 14465.586 C 7832.442 14465.579 7832.435 14465.577 7832.417 14465.573 L 7830.097 14465.052 L 7829.987 14467.434 C 7829.633 14475.169 7822.785 14533.825 7814.998 14600.007 C 7795.998 14752.001 7767.997 14819 7702.998 14864.002 C 7647.998 14902.001 7572.992 14908.991 7514.992 14881.996 C 7455.995 14853.995 7414 14800.969 7398.996 14735.979 C 7389 14687.988 7391 14646.997 7414 14427.998 Z M 7764.996 15744 C 7874.996 15757.998 7981 15771 8000 15773 C 8071 15782 9376.986 15771.002 9449.984 15761.002 C 9491.002 15756.002 9622 15746 9740 15740 C 9858 15734 10017.985 15723.001 10094.986 15715.002 C 10171.992 15706 10330.994 15693 10448.992 15685.002 C 10566.99 15676 10705.976 15663.002 10758.988 15654.002 C 10894.006 15633.003 11376.998 15615 11690 15620 C 12173 15628 12582.997 15624 12764.998 15611.002 C 12936.996 15599 12948.997 15599 13044.998 15619 C 13305.996 15674 13381 15684 13565 15684 C 13795 15685 13961 15662 14253 15589 C 14410 15550 14510.998 15512 14638.999 15444.001 C 14921.998 15295.001 15033.999 15191.002 15193.999 14933.002 C 15295.998 14770.002 15344 14630.001 15374.998 14418.002 C 15384 14356 15404 14242.002 15420 14165.002 C 15472 13911.004 15490 13669 15510 12940 C 15518 12658 15518 12444.002 15511 12190.002 C 15505 11995.002 15500 11619 15500 11355 C 15500 11049 15494 10788.002 15485 10635.002 C 15443 9947.002 15461 8873.002 15519.999 8593.002 C 15560 8405.004 15561 8373.001 15550 7950 C 15527 7089.001 15522 6984.006 15497 6830.006 C 15462.002 6622.006 15454 6338.004 15475 6075.004 C 15488 5920.004 15491 5780 15488 5455 C 15484 4957.002 15495 4486.006 15516 4230.006 C 15526 4100.004 15532 3854.001 15535 3400.002 C 15537 3045.002 15542 2608.006 15545 2429.004 C 15555 1967.008 15532 1709.003 15446.002 1345.004 C 15427.002 1263.004 15401 1147.002 15390 1089.004 C 15351 886.004 15295 759 15204 668 C 15116 578 15018.003 535 14775.002 481 C 14704.004 465 14633.083 447.021 14618.026 441.012 C 14580.014 427.013 14496.002 413 14305.004 390 C 14212.002 379 14071.018 357.002 13992.015 341.002 C 13914.016 324.004 13803.012 306.002 13747.008 299.002 C 13635.004 286.003 13385.002 291 13160.002 311 C 13006.002 324.998 12702.002 311 12130.004 262.002 C 11824.008 237 11793 236 11090 237 C 10341 238 10162.004 245 9895.002 281 C 9634.006 317 9607 316 9285 270 C 8901.001 215 8661.002 203 8266.004 219 C 8107.004 226 7929.019 236 7871.012 241 C 7649.022 262.997 7547.004 266 7285.002 257 C 7094.004 250 6974.009 251 6875.01 258.998 C 6798.008 265.998 6661 275 6570 280.002 C 6479 285 6358 294 6300 300 C 6242 306 6117.008 315 6021.01 319.998 C 5925.012 325.998 5801.004 336.998 5746.003 346 C 5659.002 360 5584 362 5195.002 356 C 4948 352 4706.008 345 4657.002 339.002 C 4609.002 333 4494 328.002 4402 327 C 4250 325 4226 327 4135 351 C 4063 370 3997.006 380 3900.01 385 C 3826.012 388 3731.005 395.998 3690.004 400.998 C 3601.994 412 3050.006 434 2875.006 433 C 2809.004 433 2679.012 428.002 2585.01 422 C 2492.012 415 2348.012 406 2265.012 400.002 C 2183.012 395.002 2068.004 385.002 2010.004 378 C 1946.001 370 1775 365 1575 365 C 1268 365 1238.002 367 1140.004 387.998 C 931.008 433.998 757.001 519.999 665.001 621.998 C 549.002 750.998 417.002 991.998 370.002 1160.996 C 325.002 1324.994 318 1438 319 2035 C 320 2343 324 2774.998 329 2994.998 C 338 3354.996 343 3440 384 3839.998 C 445 4447.996 450 4540 450 5082 C 450 5522.001 446 5670 420 6130 C 415 6226 405 6412.994 400 6544.992 C 394 6676.991 385 6832.97 380 6891.982 C 374.002 6951.01 364.999 7176 360 7392 C 355 7608 346 7892.994 341 8024.993 C 331 8246.022 317 9913.998 316 11034.998 C 315 11293.998 321 11875.998 329 12329.998 C 343 13182.998 341 13338 315 13549.998 C 275 13879 277 14357.999 320 14605 C 382 14965.998 476 15189 629 15339 C 702 15411.001 769 15452.001 872 15488 C 1045.001 15549.002 1164.996 15562 1354.998 15538 C 1427.995 15529 1468.996 15530 1536.986 15538.999 C 1584.994 15545.998 1699.99 15555 1790.99 15559 C 1881.984 15564 1960.919 15569.959 1966.924 15572.962 C 1986.492 15585.184 2427 15659 2566 15674 C 2659 15684 2873.999 15691 3219.999 15695 C 3502.999 15699 3920 15705 4144.998 15709 C 4673 15718 5620 15705.001 5960 15685 C 6419 15658 6463.998 15657 6668.998 15673.999 C 6774.998 15683 6915 15690 6979 15690 C 7163 15690 7546.997 15717 7764.996 15744 Z" style="fill: rgb(122, 122, 122); stroke: rgb(0, 0, 0);"/>
  </g>
</svg>