<?xml version="1.0" encoding="UTF-8"?>
<!DOCTYPE svg PUBLIC "-//W3C//DTD SVG 1.1//EN" "http://www.w3.org/Graphics/SVG/1.1/DTD/svg11.dtd">
<svg xmlns="http://www.w3.org/2000/svg" version="1.1" width="1584px" height="1584px" style="shape-rendering:geometricPrecision; text-rendering:geometricPrecision; image-rendering:optimizeQuality; fill-rule:evenodd; clip-rule:evenodd" xmlns:xlink="http://www.w3.org/1999/xlink">
<g><path style="opacity:0.975" fill="#59545f" d="M 1071.5,7.5 C 1089,7.51919 1099.34,16.0192 1102.5,33C 1101.86,41.5939 1098.19,48.5939 1091.5,54C 1086.16,56.1071 1081.16,58.7738 1076.5,62C 1065.2,74.9669 1053.53,87.6336 1041.5,100C 1028.33,111.833 1015.17,123.667 1002,135.5C 993.333,145.5 984.667,155.5 976,165.5C 927.946,214.887 879.279,263.554 830,311.5C 783.768,360.977 737.768,410.643 692,460.5C 658.503,499.778 623.836,538.112 588,575.5C 547.463,626.033 508.463,677.7 471,730.5C 459.869,750.606 447.369,769.772 433.5,788C 450.934,808.768 469.767,828.268 490,846.5C 527.989,890.492 569.823,930.325 615.5,966C 637.139,986.638 658.472,1007.64 679.5,1029C 697.833,1044.67 716.167,1060.33 734.5,1076C 771.318,1114.49 809.651,1151.16 849.5,1186C 871.036,1200.94 892.036,1216.6 912.5,1233C 943.6,1252.11 973.6,1272.77 1002.5,1295C 1042.92,1322.41 1081.92,1351.74 1119.5,1383C 1156.5,1410.67 1193.5,1438.33 1230.5,1466C 1241.12,1478.52 1241.12,1491.02 1230.5,1503.5C 1232.26,1519.14 1225.59,1529.31 1210.5,1534C 1203.49,1535.19 1196.82,1534.19 1190.5,1531C 1182.95,1526.46 1176.29,1520.79 1170.5,1514C 1125.49,1484.99 1082.16,1453.66 1040.5,1420C 1023.17,1407.67 1005.83,1395.33 988.5,1383C 944.704,1348.94 900.37,1315.6 855.5,1283C 816.254,1252.42 777.587,1221.09 739.5,1189C 691.256,1144.42 643.922,1098.76 597.5,1052C 564.532,1022.03 531.866,991.701 499.5,961C 457.893,916.725 415.56,873.059 372.5,830C 363.5,825 356.5,818 351.5,809C 351.833,808.667 352.167,808.333 352.5,808C 348.653,799.436 347.487,790.603 349,781.5C 354.913,770.001 361.58,759.001 369,748.5C 470.471,610.677 576.138,476.011 686,344.5C 730.632,292.526 777.465,242.359 826.5,194C 856.167,167 885.833,140 915.5,113C 931.88,99.6181 948.547,86.6181 965.5,74C 982.698,52.4626 1002.7,34.1293 1025.5,19C 1033.08,15.8417 1040.74,15.675 1048.5,18.5C 1053.46,15.683 1058.46,12.8496 1063.5,10C 1066.38,9.45397 1069.05,8.62064 1071.5,7.5 Z"/></g>
</svg>
