<?xml version="1.0" encoding="UTF-8"?>
<!DOCTYPE svg PUBLIC "-//W3C//DTD SVG 1.1//EN" "http://www.w3.org/Graphics/SVG/1.1/DTD/svg11.dtd">
<svg xmlns="http://www.w3.org/2000/svg" version="1.1" width="4752px" height="1584px" style="shape-rendering:geometricPrecision; text-rendering:geometricPrecision; image-rendering:optimizeQuality; fill-rule:evenodd; clip-rule:evenodd" xmlns:xlink="http://www.w3.org/1999/xlink">
<g><path style="opacity:0.962" fill="white" d="M 75.5,1054.5 C 77.1755,1049.06 77.6755,1043.4 77,1037.5C 76.6174,1036.94 76.1174,1036.61 75.5,1036.5C 75.2761,978.96 75.2761,921.294 75.5,863.5C 76.6784,838.662 77.6784,813.662 78.5,788.5C 78.5928,768.475 79.2595,748.475 80.5,728.5C 80.1818,703.129 80.1818,677.795 80.5,652.5C 79.8004,644.854 79.1337,637.187 78.5,629.5C 78.3901,587.961 78.7234,546.627 79.5,505.5C 77.0741,452.159 76.0741,398.826 76.5,345.5C 73.824,282.167 68.824,219.167 61.5,156.5C 61.7093,155.914 62.0426,155.414 62.5,155C 60.6888,138.068 59.1888,121.235 58,104.5C 49.0172,88.5971 49.3505,72.9304 59,57.5C 66.328,48.83 74.828,41.6633 84.5,36C 108.894,29.7355 133.561,24.7355 158.5,21C 200.74,16.9807 242.74,18.6474 284.5,26C 305.079,30.8607 325.412,36.5274 345.5,43C 407.947,64.3952 469.614,87.7286 530.5,113C 590.848,142.346 645.181,180.346 693.5,227C 755.277,287.808 811.11,353.975 861,425.5C 886.068,465.562 908.068,507.229 927,550.5C 952.674,611.132 975.007,673.132 994,736.5C 1010.38,796.497 1015.38,857.497 1009,919.5C 1004.11,968.818 997.113,1017.82 988,1066.5C 977.911,1105.98 962.911,1143.32 943,1178.5C 911.323,1231.84 874.323,1281.17 832,1326.5C 783.229,1373.76 731.063,1416.59 675.5,1455C 642.792,1476.05 607.792,1492.05 570.5,1503C 469.157,1527.04 366.157,1543.04 261.5,1551C 232.948,1552.61 204.614,1554.27 176.5,1556C 174.444,1556.31 172.444,1556.81 170.5,1557.5C 168.696,1562.48 165.196,1564.82 160,1564.5C 157.075,1564.48 154.241,1563.98 151.5,1563C 149.578,1561.12 147.411,1559.62 145,1558.5C 129.069,1560.12 112.903,1561.45 96.5,1562.5C 80.4513,1564.05 66.9513,1559.05 56,1547.5C 42.3263,1524.29 46.4929,1505.13 68.5,1490C 81.3678,1485.08 94.7011,1482.08 108.5,1481C 109.116,1479.6 109.449,1478.1 109.5,1476.5C 108.317,1471 107.317,1465.5 106.5,1460C 107.059,1459.28 107.392,1458.44 107.5,1457.5C 105.62,1432.44 103.287,1407.44 100.5,1382.5C 100.987,1369.81 99.987,1357.14 97.5,1344.5C 97.7556,1343.31 98.0889,1342.14 98.5,1341C 92.8506,1290.42 87.0173,1239.92 81,1189.5C 76.9429,1144.18 75.1095,1099.18 75.5,1054.5 Z M 155.5,914.5 C 156.702,907.018 156.702,899.684 155.5,892.5C 157.213,831.64 159.213,770.64 161.5,709.5C 160.6,696.616 160.6,683.783 161.5,671C 160.959,661.641 160.293,652.308 159.5,643C 159.771,620.25 159.771,597.417 159.5,574.5C 160.757,569.036 160.757,563.703 159.5,558.5C 159.18,539.787 159.513,521.12 160.5,502.5C 159.152,479.359 158.152,456.192 157.5,433C 158.3,426.317 157.967,419.651 156.5,413C 158.237,359.981 156.57,306.647 151.5,253C 151.968,247.523 151.468,242.023 150,236.5C 147.463,201.548 144.296,166.714 140.5,132C 140.133,123.614 140.133,115.114 140.5,106.5C 190.054,95.8449 239.387,97.0115 288.5,110C 358.231,132.205 426.898,157.205 494.5,185C 538.473,206.705 579.14,233.705 616.5,266C 682.926,326.915 741.593,394.415 792.5,468.5C 813.714,502.215 832.547,537.215 849,573.5C 874.525,632.061 896.525,692.061 915,753.5C 925.238,790.746 930.405,828.579 930.5,867C 928.529,934.121 920.029,1000.29 905,1065.5C 893.179,1101.47 876.846,1135.14 856,1166.5C 828.807,1207.68 797.974,1245.85 763.5,1281C 722.901,1319.25 679.567,1354.25 633.5,1386C 599.887,1408.13 563.22,1423.13 523.5,1431C 455.38,1445.68 386.713,1457.02 317.5,1465C 274.036,1469.07 230.703,1472.07 187.5,1474C 187.44,1464.71 187.44,1455.37 187.5,1446C 184.919,1417.9 182.585,1389.73 180.5,1361.5C 180.756,1360.31 181.089,1359.14 181.5,1358C 174.712,1293.97 167.545,1229.81 160,1165.5C 157.941,1132.36 156.441,1099.19 155.5,1066C 156.23,1015.42 156.23,964.924 155.5,914.5 Z"/></g>
<g><path style="opacity:0.962" fill="white" d="M 4117.5,268.5 C 4116.75,280.674 4116.09,293.007 4115.5,305.5C 4115.51,307.045 4115.84,308.378 4116.5,309.5C 4116.5,318.5 4116.5,327.5 4116.5,336.5C 4115.48,341.475 4114.81,346.642 4114.5,352C 4115.22,358.148 4115.55,364.314 4115.5,370.5C 4115.5,391.5 4115.5,412.5 4115.5,433.5C 4114.4,438.321 4114.4,442.987 4115.5,447.5C 4115.78,477.143 4115.78,506.81 4115.5,536.5C 4114.34,542.651 4114.34,548.651 4115.5,554.5C 4115.52,589.218 4115.52,623.884 4115.5,658.5C 4116.38,693.076 4117.72,727.576 4119.5,762C 4118.9,763.062 4118.57,764.228 4118.5,765.5C 4120.24,797.697 4122.24,829.697 4124.5,861.5C 4124.39,862.442 4124.06,863.275 4123.5,864C 4134.97,992.201 4141.3,1121.03 4142.5,1250.5C 4141.63,1278.66 4141.96,1306.83 4143.5,1335C 4143.07,1341.02 4142.73,1347.02 4142.5,1353C 4144.09,1365.53 4144.42,1377.7 4143.5,1389.5C 4144.95,1415.74 4146.79,1442.07 4149,1468.5C 4150.19,1477.19 4151.52,1485.85 4153,1494.5C 4154.06,1495.1 4155.23,1495.43 4156.5,1495.5C 4268.31,1477.44 4380.98,1465.78 4494.5,1460.5C 4532.95,1457.56 4571.28,1453.4 4609.5,1448C 4620.59,1446.46 4631.59,1444.46 4642.5,1442C 4645.5,1440.33 4648.5,1438.67 4651.5,1437C 4655.78,1430.48 4660.78,1424.48 4666.5,1419C 4683.14,1409.19 4698.3,1411.02 4712,1424.5C 4722.28,1437.57 4725.28,1452.24 4721,1468.5C 4713.46,1489.37 4699.63,1504.54 4679.5,1514C 4670.37,1517.6 4661.04,1520.6 4651.5,1523C 4593.64,1533.03 4535.47,1539.2 4477,1541.5C 4418.17,1545.2 4359.67,1550.37 4301.5,1557C 4283.5,1557.33 4265.5,1557.67 4247.5,1558C 4206.11,1562.34 4164.78,1567.17 4123.5,1572.5C 4111.4,1571.45 4101.07,1566.62 4092.5,1558C 4088.48,1556.99 4085.65,1554.49 4084,1550.5C 4076.45,1527.42 4071.45,1503.75 4069,1479.5C 4064.18,1426.73 4062.01,1373.9 4062.5,1321C 4061.9,1310.27 4061.24,1299.61 4060.5,1289C 4060.71,1248.77 4061.04,1208.6 4061.5,1168.5C 4060.69,1163.52 4060.02,1158.52 4059.5,1153.5C 4059,1103.47 4056.67,1053.3 4052.5,1003C 4052.74,1002.13 4053.07,1001.29 4053.5,1000.5C 4042.08,872.148 4035.75,743.482 4034.5,614.5C 4035.12,535.835 4035.12,457.502 4034.5,379.5C 4035.42,353.463 4036.09,327.463 4036.5,301.5C 4037.28,286.513 4037.62,271.513 4037.5,256.5C 4037.04,252.011 4037.04,247.678 4037.5,243.5C 4038.12,243.389 4038.62,243.056 4039,242.5C 4039.54,235.955 4039.04,229.622 4037.5,223.5C 4037.7,203.094 4038.03,182.76 4038.5,162.5C 4024.46,162.866 4010.46,162.366 3996.5,161C 3966.02,150.279 3956.52,129.779 3968,99.5C 3974.64,90.197 3983.47,84.0303 3994.5,81C 4011.11,81.2589 4027.61,81.4256 4044,81.5C 4124.42,70.9081 4204.92,61.0748 4285.5,52C 4340.83,46.4673 4396.16,41.9673 4451.5,38.5C 4477.74,36.1426 4503.91,34.1426 4530,32.5C 4553.3,30.4033 4576.3,28.07 4599,25.5C 4622.68,26.8499 4636.68,39.1833 4641,62.5C 4641.22,81.0218 4633.06,94.3552 4616.5,102.5C 4606.55,106.367 4596.22,108.534 4585.5,109C 4502.85,115.133 4420.19,121.467 4337.5,128C 4271.33,135.22 4204.99,142.72 4138.5,150.5C 4139.32,160.221 4137.15,169.221 4132,177.5C 4128.25,181.918 4123.92,185.584 4119,188.5C 4118.37,215.165 4117.87,241.832 4117.5,268.5 Z"/></g>
<g><path style="opacity:0.961" fill="white" d="M 2906.5,680.5 C 2907.27,675.439 2906.94,670.439 2905.5,665.5C 2904.62,646.019 2903.62,626.686 2902.5,607.5C 2903.14,602.716 2903.47,597.883 2903.5,593C 2903.02,574.649 2902.35,556.315 2901.5,538C 2903.25,437.479 2904.92,336.979 2906.5,236.5C 2907.43,225.205 2907.77,213.871 2907.5,202.5C 2908.63,193.183 2909.63,183.85 2910.5,174.5C 2794.86,180.054 2678.69,187.721 2562,197.5C 2542.69,198.139 2523.35,198.139 2504,197.5C 2496.92,197.396 2489.92,198.063 2483,199.5C 2464.89,198.372 2451.89,189.705 2444,173.5C 2437.3,145.005 2447.47,126.172 2474.5,117C 2490.34,116.292 2506.18,116.459 2522,117.5C 2536.16,116.81 2550.33,116.31 2564.5,116C 2656.3,108.881 2748.13,102.381 2840,96.5C 2968.62,90.5547 3097.12,83.7213 3225.5,76C 3239.65,75.111 3253.65,73.2777 3267.5,70.5C 3284.95,71.1167 3297.12,79.45 3304,95.5C 3309.95,120.221 3301.45,138.054 3278.5,149C 3260.57,154.181 3242.23,156.848 3223.5,157C 3153.01,161.496 3082.85,165.329 3013,168.5C 3008.44,169.083 3006.11,171.749 3006,176.5C 3002,182.5 2997,187.5 2991,191.5C 2990.14,193.087 2989.47,194.754 2989,196.5C 2988.55,205.537 2987.71,214.537 2986.5,223.5C 2987.16,245.368 2987.49,267.201 2987.5,289C 2986.26,337.284 2984.93,385.95 2983.5,435C 2983.51,439.415 2983.85,443.748 2984.5,448C 2983.76,464.937 2983.09,481.937 2982.5,499C 2982.96,634.406 2989.8,769.573 3003,904.5C 3016.26,1039.65 3033.92,1173.99 3056,1307.5C 3064.09,1361.86 3071.09,1415.86 3077,1469.5C 3077.69,1481.19 3077.36,1492.86 3076,1504.5C 3067.69,1528.4 3051.19,1537.23 3026.5,1531C 3016.79,1527.28 3009.62,1520.78 3005,1511.5C 3001.86,1503.4 2999.52,1495.07 2998,1486.5C 2990.42,1420.65 2981.58,1355.15 2971.5,1290C 2947.56,1140.91 2929.06,990.409 2916,838.5C 2911.79,785.894 2908.63,733.228 2906.5,680.5 Z"/></g>
<g><path style="opacity:0.962" fill="white" d="M 1411.5,1119.5 C 1410.36,1123.96 1409.69,1128.63 1409.5,1133.5C 1402.21,1201.04 1391.71,1268.04 1378,1334.5C 1377.38,1342.01 1376.05,1349.34 1374,1356.5C 1370.39,1379.46 1367.06,1402.46 1364,1425.5C 1361.77,1436.78 1357.27,1446.95 1350.5,1456C 1329.2,1473.77 1309.03,1472.6 1290,1452.5C 1285.02,1444.59 1282.18,1435.92 1281.5,1426.5C 1287.05,1397.68 1291.55,1368.68 1295,1339.5C 1304.06,1291.63 1312.72,1243.63 1321,1195.5C 1328.83,1129.49 1336.5,1063.49 1344,997.5C 1351.1,940.355 1359.1,883.355 1368,826.5C 1368.67,825.167 1369.33,823.833 1370,822.5C 1374.77,791.335 1380.44,760.335 1387,729.5C 1396.29,689.674 1405.29,649.674 1414,609.5C 1423.15,549.071 1432.82,488.738 1443,428.5C 1447.33,409.196 1451.66,389.863 1456,370.5C 1469.73,323.979 1485.06,277.979 1502,232.5C 1508.65,212.878 1518.98,195.545 1533,180.5C 1543.25,170.584 1553.09,160.417 1562.5,150C 1576.82,137.34 1593.16,134.006 1611.5,140C 1624.63,145.126 1635.46,153.293 1644,164.5C 1672.27,211.764 1700.94,258.764 1730,305.5C 1797.96,402.47 1863.96,500.804 1928,600.5C 1950.47,637.531 1973.14,674.531 1996,711.5C 2034.92,781.333 2068.92,853.333 2098,927.5C 2133.52,1026.6 2168.02,1125.76 2201.5,1225C 2227.54,1292.91 2252.04,1361.41 2275,1430.5C 2278.17,1443.65 2279.17,1456.99 2278,1470.5C 2271.26,1491.64 2256.76,1500.8 2234.5,1498C 2228.66,1495.49 2223.32,1492.16 2218.5,1488C 2212.8,1481.44 2207.97,1474.27 2204,1466.5C 2147.07,1313.18 2092.4,1158.85 2040,1003.5C 2032.19,983.404 2024.35,963.238 2016.5,943C 2004.52,943.416 1992.52,944.249 1980.5,945.5C 1974.63,945.767 1968.97,945.434 1963.5,944.5C 1845.15,949.51 1726.65,956.177 1608,964.5C 1550.97,967.767 1494.14,974.933 1437.5,986C 1433.72,988.307 1429.88,990.474 1426,992.5C 1421.41,1034.88 1416.58,1077.22 1411.5,1119.5 Z M 1591.5,235.5 C 1594.63,238.483 1597.29,241.983 1599.5,246C 1624.9,289.591 1651.4,332.425 1679,374.5C 1753.36,480.563 1825.03,588.563 1894,698.5C 1926.37,751.58 1955.87,806.247 1982.5,862.5C 1982,862.833 1981.5,863.167 1981,863.5C 1899.46,866.168 1818.29,870.168 1737.5,875.5C 1657.53,878.709 1577.53,884.875 1497.5,894C 1477.51,897.202 1457.51,899.868 1437.5,902C 1438.25,899.825 1439.09,897.659 1440,895.5C 1444.14,858.722 1450.47,822.388 1459,786.5C 1469.22,732.603 1480.56,678.936 1493,625.5C 1500.18,582.254 1506.85,538.921 1513,495.5C 1520.78,446.012 1531.78,397.345 1546,349.5C 1557.02,317.406 1568.36,285.406 1580,253.5C 1583.38,247.152 1587.21,241.152 1591.5,235.5 Z"/></g>
<g><path style="opacity:0.005" fill="#000000" d="M 2907.5,202.5 C 2907.77,213.871 2907.43,225.205 2906.5,236.5C 2905.88,236.083 2905.54,235.416 2905.5,234.5C 2906.12,223.685 2906.79,213.019 2907.5,202.5 Z"/></g>
<g><path style="opacity:0.011" fill="white" d="M 4037.5,223.5 C 4039.04,229.622 4039.54,235.955 4039,242.5C 4038.62,243.056 4038.12,243.389 4037.5,243.5C 4037.5,236.833 4037.5,230.167 4037.5,223.5 Z"/></g>
<g><path style="opacity:0.005" fill="#000000" d="M 4037.5,256.5 C 4037.62,271.513 4037.28,286.513 4036.5,301.5C 4035.84,299.696 4035.5,297.696 4035.5,295.5C 4036.05,282.336 4036.71,269.336 4037.5,256.5 Z"/></g>
<g><path style="opacity:0.005" fill="#000000" d="M 4117.5,268.5 C 4117.61,269.117 4117.94,269.617 4118.5,270C 4117.72,283.108 4117.06,296.274 4116.5,309.5C 4115.84,308.378 4115.51,307.045 4115.5,305.5C 4116.09,293.007 4116.75,280.674 4117.5,268.5 Z"/></g>
<g><path style="opacity:0.02" fill="#1c1c1c" d="M 4116.5,336.5 C 4116.26,347.961 4115.93,359.295 4115.5,370.5C 4115.55,364.314 4115.22,358.148 4114.5,352C 4114.81,346.642 4115.48,341.475 4116.5,336.5 Z"/></g>
<g><path style="opacity:0.005" fill="#000000" d="M 4115.5,433.5 C 4116.05,437.978 4116.05,442.645 4115.5,447.5C 4114.4,442.987 4114.4,438.321 4115.5,433.5 Z"/></g>
<g><path style="opacity:0.006" fill="#000000" d="M 4115.5,536.5 C 4115.87,542.306 4115.87,548.306 4115.5,554.5C 4114.34,548.651 4114.34,542.651 4115.5,536.5 Z"/></g>
<g><path style="opacity:0.005" fill="#000000" d="M 159.5,558.5 C 160.757,563.703 160.757,569.036 159.5,574.5C 159.243,569.376 159.243,564.043 159.5,558.5 Z"/></g>
<g><path style="opacity:0.005" fill="white" d="M 2905.5,665.5 C 2906.94,670.439 2907.27,675.439 2906.5,680.5C 2905.51,675.695 2905.18,670.695 2905.5,665.5 Z"/></g>
<g><path style="opacity:0.957" fill="white" d="M 4509.5,762.5 C 4557.38,762.869 4605.38,763.702 4653.5,765C 4663.84,765.918 4674.17,766.918 4684.5,768C 4711.32,770.15 4723.82,784.65 4722,811.5C 4720.25,817.896 4717.08,823.563 4712.5,828.5C 4705.15,834.509 4696.82,838.342 4687.5,840C 4649.36,844.413 4611.19,845.579 4573,843.5C 4546.11,843.692 4519.44,843.692 4493,843.5C 4397.85,844.546 4303.35,852.713 4209.5,868C 4206.56,869.152 4203.56,870.152 4200.5,871C 4183.71,888.339 4165.38,889.672 4145.5,875C 4129.2,858.845 4126.03,840.345 4136,819.5C 4142.71,809.803 4151.54,802.636 4162.5,798C 4170.08,795.52 4177.75,793.186 4185.5,791C 4223.3,783.22 4261.13,777.72 4299,774.5C 4369.2,766.85 4439.36,762.85 4509.5,762.5 Z"/></g>
<g><path style="opacity:0.005" fill="#000000" d="M 78.5,788.5 C 77.6784,813.662 76.6784,838.662 75.5,863.5C 75.6472,841.16 76.1472,818.827 77,796.5C 77.1829,793.635 77.6829,790.969 78.5,788.5 Z"/></g>
<g><path style="opacity:0.005" fill="#000000" d="M 155.5,892.5 C 156.702,899.684 156.702,907.018 155.5,914.5C 155.226,907.362 155.226,900.029 155.5,892.5 Z"/></g>
<g><path style="opacity:0.035" fill="white" d="M 75.5,1036.5 C 76.1174,1036.61 76.6174,1036.94 77,1037.5C 77.6755,1043.4 77.1755,1049.06 75.5,1054.5C 75.5,1048.5 75.5,1042.5 75.5,1036.5 Z"/></g>
<g><path style="opacity:0.004" fill="#000000" d="M 1411.5,1119.5 C 1411.77,1124.43 1411.1,1129.1 1409.5,1133.5C 1409.69,1128.63 1410.36,1123.96 1411.5,1119.5 Z"/></g>
</svg>
