<?xml version="1.0" standalone="no"?>
<!DOCTYPE svg PUBLIC "-//W3C//DTD SVG 20010904//EN"
 "http://www.w3.org/TR/2001/REC-SVG-20010904/DTD/svg10.dtd">
<svg version="1.0" xmlns="http://www.w3.org/2000/svg"
 width="792.000000pt" height="792.000000pt" viewBox="0 0 792.000000 792.000000"
 preserveAspectRatio="xMidYMid meet">

<g transform="translate(0.000000,792.000000) scale(0.100000,-0.100000)"
fill="#59545f" stroke="none">
<path d="M5731 7418 c-55 -27 -191 -195 -283 -348 -35 -58 -91 -148 -126 -202
-83 -128 -104 -177 -100 -234 3 -50 5 -48 -73 -83 -67 -31 -117 -78 -222 -209
-245 -306 -390 -508 -802 -1118 -519 -767 -798 -1148 -1383 -1889 -155 -196
-330 -474 -368 -584 -17 -50 -5 -87 32 -101 14 -6 24 -16 21 -23 -39 -98 -38
-97 -69 -97 -57 0 -103 -76 -113 -188 -3 -26 -10 -101 -15 -167 -6 -70 -25
-176 -45 -257 -47 -186 -46 -213 14 -237 25 -11 36 -10 73 7 47 22 76 47 133
116 21 25 60 62 87 82 27 20 75 71 107 113 55 71 92 108 223 222 33 30 77 85
117 150 66 108 806 1105 1096 1479 45 58 160 220 255 360 95 140 261 374 370
520 108 146 254 346 325 445 71 99 180 250 244 335 201 271 364 501 444 627
42 67 145 224 229 350 84 126 168 262 187 303 18 41 38 86 45 100 10 20 21 26
62 30 62 6 96 28 119 76 19 41 16 91 -9 129 -8 12 -52 47 -98 78 -46 30 -114
82 -152 116 -129 114 -231 146 -325 99z"/>
<path d="M5550 2429 c-237 -25 -556 -80 -793 -139 -67 -17 -288 -86 -492 -154
-203 -69 -487 -162 -630 -209 -296 -96 -505 -173 -750 -277 -345 -146 -689
-273 -1028 -380 -283 -89 -377 -109 -542 -116 -113 -5 -135 -3 -165 13 -49 26
-65 62 -46 107 32 77 166 172 296 210 30 9 123 24 205 32 168 17 395 58 436
79 38 20 43 52 13 82 -23 23 -31 25 -82 19 -31 -4 -127 -11 -212 -16 -181 -12
-224 -17 -305 -37 -351 -87 -540 -335 -389 -511 66 -78 95 -86 290 -90 259 -5
351 17 899 220 149 55 380 136 515 180 280 92 479 163 765 273 497 192 938
327 1472 450 585 136 1013 161 1195 69 56 -28 78 -57 78 -102 0 -73 -64 -148
-164 -192 -100 -45 -368 -81 -741 -100 -614 -31 -735 -46 -965 -122 -185 -61
-318 -134 -392 -216 -52 -57 -70 -98 -70 -154 0 -97 67 -155 207 -179 99 -17
536 -2 1025 35 527 40 862 45 1110 16 173 -20 525 -110 504 -130 -50 -45 -549
-144 -1189 -234 -329 -47 -592 -58 -1400 -61 -767 -3 -875 -7 -1239 -56 -292
-38 -887 -174 -988 -225 -78 -40 -111 -108 -82 -169 19 -41 47 -60 108 -76 63
-16 155 -1 446 71 387 96 661 144 985 170 72 6 481 15 910 21 429 5 796 11
815 14 19 2 96 9 170 15 298 25 984 124 1241 181 258 56 365 97 446 172 66 61
87 108 88 193 0 61 -4 77 -30 120 -41 66 -107 104 -275 158 -229 75 -354 96
-695 117 -202 12 -383 8 -635 -15 -85 -8 -204 -17 -265 -21 -60 -3 -184 -15
-275 -25 -91 -10 -208 -22 -260 -25 -52 -3 -160 -13 -240 -21 -80 -9 -166 -14
-190 -12 l-45 3 55 33 c157 93 484 151 1250 222 266 24 445 52 555 87 227 71
366 200 382 354 18 182 -122 294 -430 344 -100 16 -317 18 -457 4z"/>
</g>
</svg>
