<?xml version="1.0" standalone="no"?>
<!DOCTYPE svg PUBLIC "-//W3C//DTD SVG 20010904//EN"
 "http://www.w3.org/TR/2001/REC-SVG-20010904/DTD/svg10.dtd">
<svg version="1.0" xmlns="http://www.w3.org/2000/svg"
 width="792.000000pt" height="792.000000pt" viewBox="0 0 792.000000 792.000000"
 preserveAspectRatio="xMidYMid meet">

<g transform="translate(0.000000,792.000000) scale(0.100000,-0.100000)"
fill="#000000" stroke="none">
<path d="M337 7853 c-101 -34 -158 -83 -187 -161 -24 -62 -24 -50 1 -367 7
-88 13 -196 13 -240 0 -563 -12 -2164 -18 -2173 -4 -7 1 -84 10 -173 16 -140
16 -175 5 -272 -67 -580 -89 -922 -72 -1107 7 -74 16 -272 21 -440 6 -168 15
-370 21 -450 22 -285 25 -377 17 -515 -16 -307 -33 -821 -33 -1020 0 -437 17
-597 73 -700 50 -92 182 -165 270 -150 22 3 51 1 67 -6 19 -7 124 -13 290 -16
471 -9 598 -7 824 11 232 18 317 16 581 -15 153 -18 275 -8 419 35 80 23 160
40 225 45 103 9 403 1 726 -21 96 -6 274 -12 395 -12 163 -1 250 -6 335 -20
121 -20 142 -19 535 4 88 6 241 14 340 19 99 6 205 13 235 16 30 4 125 1 210
-6 85 -8 198 -13 250 -12 52 1 318 4 590 8 562 7 831 23 930 55 121 40 226 97
295 161 126 118 177 224 196 409 11 112 9 156 -22 400 -10 85 -24 223 -29 305
-5 83 -17 209 -25 280 -27 237 -36 408 -30 545 8 167 40 476 61 590 12 62 18
193 25 485 5 220 11 470 15 555 6 162 7 151 -51 515 -31 197 -34 251 -45 800
-8 422 -9 444 -34 545 -34 140 -41 240 -27 390 16 169 29 256 57 380 40 176
67 470 60 645 -7 181 -15 216 -69 324 -83 164 -192 262 -352 317 -74 25 -95
28 -271 32 -231 5 -291 -3 -489 -68 -276 -90 -280 -91 -645 -100 -179 -5 -419
-11 -535 -15 -188 -7 -225 -5 -355 14 -80 12 -179 31 -220 41 -137 34 -283 58
-450 74 -168 17 -463 46 -715 71 -179 18 -317 18 -479 0 -243 -27 -553 -40
-836 -35 -469 9 -625 6 -776 -14 -122 -16 -192 -17 -515 -13 -389 5 -382 4
-573 56 -103 27 -144 26 -239 -6z"/>
</g>
</svg>
