<?xml version="1.0" standalone="no"?>
<!DOCTYPE svg PUBLIC "-//W3C//DTD SVG 20010904//EN"
 "http://www.w3.org/TR/2001/REC-SVG-20010904/DTD/svg10.dtd">
<svg version="1.0" xmlns="http://www.w3.org/2000/svg"
 width="4752.000000pt" height="1584.000000pt" viewBox="0 0 4752.000000 1584.000000"
 preserveAspectRatio="xMidYMid meet">

<g transform="translate(0.000000,1584.000000) scale(0.100000,-0.100000)"
fill="#f5f5f5" stroke="none">
<path d="M3900 15789 c-168 -4 -443 -15 -612 -23 -169 -9 -522 -23 -785 -31
-621 -19 -810 -30 -1198 -66 -741 -69 -744 -70 -882 -23 -157 53 -290 7 -349
-121 -45 -96 -28 -206 44 -287 51 -55 103 -85 212 -120 71 -22 89 -23 330 -22
193 0 300 5 440 22 367 42 692 65 1185 82 160 5 427 14 595 20 168 6 442 17
610 25 577 27 686 29 696 14 5 -8 9 -187 10 -399 1 -212 6 -875 12 -1475 9
-953 13 -1127 32 -1380 28 -380 36 -1159 20 -1985 -29 -1527 -26 -1808 30
-2830 11 -195 27 -485 35 -645 9 -159 26 -456 40 -660 41 -619 59 -1027 85
-1870 13 -425 26 -713 45 -970 29 -405 35 -509 55 -925 35 -709 37 -780 29
-910 -26 -419 -210 -617 -592 -637 -131 -7 -238 7 -399 53 -363 103 -688 272
-919 478 -96 85 -175 181 -319 386 -41 58 -127 173 -191 255 -158 204 -243
330 -401 595 -308 514 -476 869 -629 1331 -149 448 -193 639 -239 1019 -25
213 -47 278 -115 346 -40 40 -62 54 -103 63 -132 32 -256 -44 -297 -182 -17
-58 -20 -210 -5 -319 5 -40 17 -127 25 -193 30 -225 95 -479 220 -863 162
-498 363 -928 683 -1462 184 -307 272 -437 458 -676 55 -71 155 -207 223 -303
316 -446 683 -711 1276 -923 306 -109 569 -152 802 -130 437 39 744 236 921
587 39 80 87 229 108 346 23 118 25 497 6 889 -26 553 -33 670 -47 860 -33
449 -61 1003 -75 1505 -17 606 -51 1307 -95 1945 -20 292 -82 1463 -94 1790
-21 555 -22 695 -5 1385 9 391 17 1063 18 1495 1 711 -1 816 -21 1110 -35 523
-36 557 -38 1400 0 443 -5 1035 -9 1315 -5 319 -5 523 1 545 l9 35 215 -3
c511 -6 1408 -52 2359 -122 151 -11 372 -22 490 -23 l215 -2 68 33 c119 59
175 167 148 286 -27 123 -128 197 -275 203 -320 12 -605 28 -946 53 -1123 83
-2393 128 -3110 109z"/>
<path d="M22783 15776 c-63 -20 -118 -69 -149 -132 -24 -49 -28 -70 -30 -169
l-3 -112 -77 -179 c-98 -231 -164 -412 -257 -709 -333 -1064 -397 -1278 -496
-1670 -95 -378 -193 -784 -275 -1145 -243 -1073 -252 -1116 -436 -2075 -39
-203 -75 -390 -80 -415 -11 -50 -40 -210 -94 -515 -38 -214 -99 -574 -312
-1845 -74 -443 -164 -974 -199 -1180 -67 -391 -129 -779 -165 -1035 -12 -82
-44 -289 -71 -460 -58 -364 -149 -954 -214 -1390 -57 -386 -82 -529 -150 -870
-140 -698 -189 -1062 -190 -1410 0 -208 1 -222 22 -261 52 -98 116 -143 215
-151 105 -10 202 47 256 151 29 55 28 42 22 366 -4 199 62 649 176 1205 79
386 89 450 265 1635 5 36 34 216 64 400 29 184 72 459 95 610 63 427 107 702
156 990 25 146 90 533 145 860 55 327 133 793 174 1035 41 242 95 564 120 715
70 418 96 554 108 562 7 4 55 8 107 8 52 0 172 5 265 10 94 5 301 14 460 20
160 6 378 17 485 26 164 14 300 15 860 11 648 -6 912 0 1030 24 30 6 95 25
144 41 73 24 91 27 101 16 7 -7 43 -125 80 -263 74 -274 212 -755 275 -960 23
-71 99 -328 170 -570 151 -517 150 -513 245 -810 41 -126 97 -309 125 -405
162 -550 192 -646 310 -985 54 -154 130 -383 170 -510 115 -369 207 -645 292
-875 44 -118 108 -294 143 -390 35 -96 89 -240 120 -320 31 -80 99 -260 152
-400 100 -268 160 -420 274 -688 39 -89 99 -235 135 -324 76 -192 100 -234
155 -282 135 -115 332 -72 409 90 54 116 31 259 -62 381 -35 46 -74 119 -121
228 -99 230 -228 548 -302 748 -35 94 -85 226 -110 292 -250 647 -408 1092
-593 1675 -61 190 -162 498 -226 685 -63 187 -154 471 -200 630 -47 160 -107
360 -134 445 -165 525 -233 748 -327 1080 -23 83 -122 413 -175 585 -72 235
-118 395 -205 715 -42 151 -96 347 -120 435 -25 88 -72 259 -105 380 -56 208
-91 327 -224 747 -72 230 -131 440 -201 718 -154 614 -265 943 -480 1430 -212
480 -307 711 -519 1260 -69 179 -186 476 -261 660 -145 357 -339 868 -374 987
-25 84 -26 124 -7 162 22 42 30 121 16 171 -19 69 -119 238 -163 272 -67 53
-152 69 -234 44z m86 -1317 c37 -100 169 -431 274 -689 52 -129 159 -401 238
-605 152 -396 260 -658 439 -1065 241 -548 320 -774 460 -1325 113 -443 177
-666 300 -1055 117 -367 140 -453 129 -467 -6 -7 -53 -26 -105 -43 -126 -40
-331 -54 -674 -46 -480 12 -1022 9 -1240 -8 -113 -9 -333 -20 -490 -26 -157
-5 -377 -15 -489 -21 -126 -6 -207 -7 -213 -1 -6 6 4 79 27 193 41 209 81 417
155 799 72 371 135 664 245 1140 13 58 47 206 75 330 221 973 339 1421 586
2215 248 797 231 748 248 742 6 -2 21 -32 35 -68z"/>
<path d="M41885 15777 c-65 -22 -99 -43 -138 -86 -49 -54 -66 -90 -82 -174 -8
-40 -28 -130 -45 -202 -155 -648 -211 -1017 -284 -1885 -42 -485 -46 -588 -56
-1235 -5 -341 -12 -690 -15 -775 -10 -256 -44 -821 -62 -1040 -25 -306 -25
-964 1 -1240 29 -303 27 -649 -7 -1045 -28 -323 -56 -720 -82 -1155 -16 -269
-46 -668 -70 -935 -35 -398 -44 -612 -45 -1010 0 -181 -6 -645 -12 -1030 -8
-518 -8 -808 1 -1115 6 -228 13 -597 16 -820 3 -223 8 -450 11 -505 9 -160 62
-672 79 -763 18 -96 134 -451 173 -530 50 -102 161 -173 285 -180 75 -5 187 4
617 48 157 16 346 34 420 39 153 12 1036 25 1725 26 504 0 497 0 905 75 85 16
252 43 370 60 118 17 301 46 405 65 193 35 281 46 527 65 257 20 559 129 706
255 192 166 107 435 -138 435 -83 0 -159 -18 -340 -80 -157 -54 -216 -64 -445
-80 -89 -6 -238 -26 -368 -50 -121 -22 -287 -49 -370 -60 -156 -22 -392 -61
-647 -108 -143 -26 -152 -27 -595 -28 -247 0 -742 -6 -1100 -12 -634 -10 -747
-16 -1090 -56 -291 -33 -405 -40 -419 -25 -18 19 -72 180 -85 254 -18 98 -60
536 -71 740 -5 105 -10 314 -10 465 0 151 -5 448 -11 660 -8 281 -8 693 0
1530 11 1145 14 1255 51 1685 26 302 53 678 85 1170 23 355 42 628 61 867 4
42 9 81 13 86 8 12 876 -2 1086 -18 83 -6 220 -20 305 -31 449 -58 1125 -130
1390 -148 256 -18 642 -30 1140 -36 613 -7 968 -20 1140 -41 184 -23 390 -15
474 16 119 45 196 160 183 272 -7 60 -51 142 -92 174 -76 58 -116 67 -330 75
-110 4 -239 13 -288 19 -116 14 -613 29 -1357 40 -570 9 -775 17 -1000 40 -52
5 -144 14 -205 20 -60 6 -148 15 -195 20 -47 5 -152 17 -235 25 -82 9 -274 32
-425 50 -414 52 -585 63 -1050 70 l-425 6 -38 25 c-49 32 -57 56 -57 170 0 52
-7 183 -15 292 -39 507 -37 774 10 1444 40 573 44 698 55 1405 9 639 24 1009
55 1368 18 196 53 571 60 630 48 407 83 626 145 910 52 235 66 294 75 303 24
24 1370 36 1607 14 76 -7 227 -19 335 -27 261 -20 597 -51 813 -76 309 -35
641 -68 795 -78 430 -29 1107 -21 1207 14 58 21 132 84 160 138 67 132 7 297
-130 360 -46 22 -55 22 -447 19 -497 -4 -875 14 -1270 63 -117 14 -399 45
-600 65 -141 14 -690 58 -877 70 -324 20 -578 23 -993 9 -543 -18 -596 -17
-660 11 -61 27 -156 35 -210 17z"/>
</g>
</svg>
