<?xml version="1.0" standalone="no"?>
<!DOCTYPE svg PUBLIC "-//W3C//DTD SVG 20010904//EN"
 "http://www.w3.org/TR/2001/REC-SVG-20010904/DTD/svg10.dtd">
<svg version="1.0" xmlns="http://www.w3.org/2000/svg"
 width="1260.000000pt" height="1260.000000pt" viewBox="0 0 1260.000000 1260.000000"
 preserveAspectRatio="xMidYMid meet">

<g transform="translate(0.000000,1260.000000) scale(0.100000,-0.100000)"
fill="#59545f" stroke="none">
<path d="M5580 9574 c-196 -51 -349 -206 -390 -396 -18 -82 -8 -238 20 -313
55 -147 175 -274 316 -335 l74 -33 -79 -48 c-112 -69 -243 -221 -278 -323 -29
-84 23 -139 113 -119 24 6 44 9 44 7 0 -2 -16 -29 -36 -60 -54 -84 -148 -285
-188 -397 -18 -54 -36 -100 -38 -103 -3 -2 -18 2 -34 11 -39 20 -63 19 -102
-5 -108 -66 -117 -331 -15 -420 24 -22 43 -30 59 -27 21 4 23 0 29 -52 24
-225 85 -412 182 -558 55 -84 164 -195 238 -243 74 -48 172 -91 192 -83 19 7
16 33 -4 40 -10 3 -50 21 -89 40 -182 87 -338 280 -413 508 -89 273 -78 540
35 869 44 127 147 337 216 440 l53 79 153 88 c136 77 152 84 152 65 0 -12 7
-32 16 -45 16 -22 21 -23 82 -17 36 4 90 16 121 26 66 24 71 24 71 6 0 -23 41
-46 80 -46 40 0 124 25 155 47 11 7 34 13 51 13 17 0 53 12 80 26 27 15 67 32
89 38 36 11 43 10 74 -11 59 -40 113 -29 186 38 l44 41 44 -21 c46 -22 116
-28 147 -11 13 7 21 7 25 0 3 -5 14 -10 25 -10 39 0 177 -180 294 -384 221
-384 318 -716 286 -986 -24 -211 -94 -381 -229 -560 -186 -248 -333 -358 -593
-445 -143 -47 -226 -58 -393 -52 -137 5 -334 42 -359 67 -12 12 -53 13 -60 2
-10 -17 13 -34 80 -57 74 -25 183 -49 277 -60 l57 -6 0 -58 c0 -32 3 -71 6
-87 5 -27 1 -31 -53 -59 -100 -52 -213 -179 -198 -224 9 -29 46 -44 80 -31 32
12 77 5 117 -18 21 -12 31 -13 39 -5 33 33 -38 77 -123 77 -32 1 -58 3 -58 7
0 12 136 136 166 152 l30 15 13 -43 c10 -34 10 -56 2 -95 -12 -55 -9 -70 15
-70 8 0 14 -7 14 -15 0 -18 27 -33 61 -33 31 1 112 -38 136 -64 9 -10 25 -18
36 -18 18 0 19 5 13 43 -4 23 -9 81 -13 129 -4 57 -11 92 -20 99 -27 23 -36
-5 -31 -93 l4 -84 -60 24 c-34 13 -62 25 -64 27 -6 6 141 155 159 160 10 4 19
15 19 26 0 54 350 153 475 135 61 -10 75 -26 75 -92 0 -41 4 -56 16 -61 23 -9
34 15 34 74 0 44 -5 58 -29 85 -29 32 -31 33 -128 36 -71 3 -123 -2 -189 -16
-171 -38 -366 -128 -372 -173 -2 -13 -20 -44 -40 -68 -21 -25 -43 -52 -49 -60
-10 -13 -11 -4 -6 45 4 44 1 77 -11 115 -19 61 -19 210 0 216 8 3 13 -37 17
-124 3 -70 8 -136 12 -145 7 -19 30 -24 39 -10 3 5 0 68 -5 141 -6 73 -9 134
-7 136 2 2 48 11 103 20 178 28 360 102 512 207 128 88 295 284 398 463 79
139 135 353 135 516 l0 79 40 16 c50 20 113 90 128 142 33 108 -10 293 -87
375 -61 67 -132 76 -182 24 l-31 -33 -84 166 c-107 209 -251 425 -337 508
l-65 62 16 33 c21 40 20 102 -1 143 -13 25 -15 49 -10 121 13 209 -64 389
-217 504 -99 74 -200 85 -265 28 -44 -39 -68 -37 -96 8 -43 69 -121 154 -197
215 -86 68 -262 158 -358 182 -80 21 -307 21 -384 0z m2158 -1972 c54 -35 102
-164 102 -274 0 -69 -14 -112 -49 -152 -19 -21 -71 -50 -78 -42 -3 2 -11 41
-19 84 -7 44 -30 133 -49 198 -39 127 -39 151 1 190 26 27 46 26 92 -4z
m-2638 -190 l22 -17 -20 -105 c-11 -58 -23 -133 -27 -167 -6 -57 -9 -63 -30
-63 -62 0 -106 159 -75 272 14 50 56 98 85 98 12 0 33 -8 45 -18z"/>
<path d="M7679 7484 c-12 -15 -11 -19 9 -32 14 -9 22 -25 22 -43 0 -29 16 -47
30 -33 4 5 11 28 15 51 6 39 5 43 -24 57 -37 20 -36 20 -52 0z"/>
<path d="M5007 7292 c-24 -27 -21 -47 10 -61 32 -15 41 -6 45 39 2 29 -1 36
-18 38 -11 2 -28 -6 -37 -16z"/>
<path d="M5805 8000 c-19 -21 -14 -50 9 -50 17 0 49 47 41 60 -10 16 -30 12
-50 -10z"/>
<path d="M5868 7960 c-51 -44 -105 -138 -95 -163 8 -21 47 -22 47 -2 0 50 82
150 134 163 17 5 32 16 34 25 3 14 -4 17 -36 17 -31 0 -48 -8 -84 -40z"/>
<path d="M6804 7975 c-8 -19 22 -65 41 -65 17 0 20 32 5 61 -13 23 -38 25 -46
4z"/>
<path d="M6732 7873 c-35 -14 -67 -123 -78 -269 -16 -218 61 -574 124 -574 26
0 37 15 55 80 59 208 66 443 20 644 -21 96 -67 141 -121 119z"/>
<path d="M5964 7822 c-93 -109 -170 -371 -180 -612 -4 -91 -2 -136 8 -165 18
-54 47 -58 79 -13 13 18 27 36 33 40 11 7 72 208 127 418 29 111 42 183 46
256 l5 101 -32 7 c-48 9 -52 8 -86 -32z"/>
<path d="M6401 7190 c-114 -24 -211 -106 -211 -180 0 -11 13 -34 28 -51 24
-26 36 -32 73 -33 60 -1 59 23 -1 44 -53 18 -62 45 -30 89 47 67 186 107 265
76 55 -21 68 -42 63 -108 -2 -43 0 -52 14 -55 40 -8 51 96 15 148 -41 63 -123
89 -216 70z"/>
<path d="M6942 7088 c-15 -19 -42 -76 -42 -88 0 -5 9 -10 19 -10 22 0 85 85
76 101 -9 13 -41 11 -53 -3z"/>
<path d="M5658 7055 c-14 -32 1 -104 25 -119 25 -15 39 9 24 41 -8 18 -8 32 0
53 18 48 -27 72 -49 25z"/>
<path d="M7054 6883 c14 -81 18 -256 7 -293 -6 -22 -28 -53 -50 -73 -89 -81
-252 -88 -388 -19 -53 28 -65 28 -61 0 4 -31 92 -73 181 -88 168 -29 326 43
362 163 18 60 20 194 4 269 -13 59 -24 78 -46 78 -12 0 -14 -8 -9 -37z"/>
<path d="M5660 5700 c-203 -19 -330 -73 -330 -141 0 -16 7 -29 16 -33 22 -9
28 -1 33 45 2 14 97 51 165 65 39 8 143 17 231 21 230 8 439 -19 524 -68 39
-23 64 -12 45 19 -44 73 -385 119 -684 92z"/>
<path d="M5770 5475 c-16 -19 -6 -31 38 -46 54 -17 146 -65 161 -83 12 -14 10
-16 -8 -16 -26 0 -40 -28 -20 -41 25 -15 96 -11 103 7 10 26 7 32 -31 75 -39
43 -76 65 -164 99 -64 24 -63 24 -79 5z"/>
<path d="M5334 5384 c-15 -22 -15 -32 -5 -78 20 -89 74 -160 181 -240 l56 -41
-28 -24 c-57 -46 -150 -280 -199 -499 l-23 -104 21 -16 c11 -9 31 -36 43 -60
15 -31 26 -42 37 -38 9 4 44 -9 80 -30 118 -66 306 -132 426 -149 29 -5 47
-12 47 -21 0 -20 -32 -84 -43 -84 -5 0 -65 34 -134 76 -134 82 -232 129 -407
199 -61 24 -147 60 -191 80 -91 42 -240 95 -267 95 -30 0 -34 -30 -7 -51 40
-32 203 -115 394 -200 99 -45 251 -114 337 -155 278 -130 394 -167 420 -136
10 11 8 17 -7 29 -11 7 -30 16 -42 20 -27 6 -27 4 -3 73 12 36 25 56 37 59 41
8 70 59 42 77 -16 9 -3 64 21 86 17 16 20 32 20 99 0 117 20 269 36 269 7 0
19 9 27 20 l14 20 18 -20 c23 -26 40 -25 59 1 14 21 15 20 40 -30 15 -28 30
-51 34 -51 17 1 30 17 36 45 6 26 11 30 45 32 27 2 41 -2 45 -12 7 -21 34 -19
79 5 44 24 47 24 47 5 0 -7 8 -18 17 -23 16 -9 16 -15 1 -82 -8 -40 -16 -131
-17 -208 -1 -76 -9 -171 -17 -212 -18 -93 -17 -95 2 -79 25 21 37 -9 16 -43
-15 -26 -15 -29 0 -45 14 -13 20 -14 32 -3 14 11 16 6 16 -41 1 -76 16 -93 77
-85 113 15 579 176 738 256 136 68 281 152 300 174 11 13 30 29 43 35 27 14
30 51 3 51 -10 0 -43 -11 -72 -24 -30 -14 -105 -43 -168 -66 l-113 -40 6 53
c16 128 -8 424 -50 607 -18 80 -37 101 -99 107 l-45 6 6 36 c4 27 2 41 -10 50
-22 18 -32 8 -40 -41 -4 -24 -18 -62 -32 -86 -24 -40 -24 -45 -10 -61 15 -16
15 -19 -1 -33 -50 -43 -83 -40 -83 9 0 13 -4 23 -10 23 -5 0 -34 21 -63 48
-29 26 -70 61 -91 78 -38 30 -39 32 -27 64 6 19 21 45 33 57 20 22 21 25 6 40
-25 24 -46 9 -74 -52 -14 -30 -27 -55 -28 -55 -2 0 -23 7 -46 15 -23 8 -60 15
-81 15 -35 0 -39 -3 -39 -25 0 -13 -12 -41 -26 -62 -20 -29 -25 -48 -22 -81 2
-32 0 -41 -10 -37 -17 6 -73 -55 -114 -127 -27 -47 -38 -57 -60 -58 -14 0 -33
-3 -42 -6 -12 -5 -16 1 -17 22 0 16 -8 58 -17 94 l-17 66 37 17 c34 17 39 17
68 2 34 -18 50 -13 50 14 0 29 -73 58 -132 53 -9 -1 -20 -14 -25 -29 l-9 -27
-19 32 c-12 20 -27 32 -41 32 -18 0 -22 7 -26 50 -5 52 -37 100 -65 100 -24 0
-26 -28 -4 -56 47 -59 26 -96 -102 -180 -69 -45 -101 -56 -91 -29 8 19 -16 73
-35 80 -25 10 -36 -12 -24 -45 14 -38 3 -38 -40 0 -19 17 -44 30 -56 30 -11 0
-21 4 -21 9 0 5 -35 29 -77 52 -202 109 -297 177 -341 242 -38 55 -56 111 -44
133 24 43 -18 79 -44 38z m1543 -400 c60 -35 173 -133 173 -150 0 -8 -9 -23
-20 -34 -24 -24 -101 -28 -120 -6 -6 8 -45 25 -87 37 -87 26 -123 51 -123 85
0 34 28 74 51 74 11 0 22 7 26 16 7 20 42 12 100 -22z m-584 -72 c23 -26 56
-126 63 -191 l6 -56 -19 30 c-40 62 -83 72 -83 19 0 -26 -1 -26 -48 19 -27 24
-63 52 -80 61 -18 9 -32 18 -32 20 0 2 36 25 80 51 44 26 80 51 80 56 0 15 16
10 33 -9z m510 -126 c76 -24 87 -30 87 -50 0 -51 -91 -113 -151 -104 -20 3
-13 9 39 33 40 20 61 35 60 45 -5 26 -41 22 -100 -9 l-57 -31 2 27 c3 40 -25
40 -84 3 -27 -18 -52 -30 -54 -28 -9 9 73 126 100 144 15 10 24 23 20 31 -3 8
8 4 23 -9 16 -13 68 -36 115 -52z m-628 -86 c10 -11 16 -20 13 -20 -3 0 -13 9
-23 20 -10 11 -16 20 -13 20 3 0 13 -9 23 -20z m1255 -510 c0 -5 -5 -10 -11
-10 -5 0 -7 5 -4 10 3 6 8 10 11 10 2 0 4 -4 4 -10z m-474 -195 c-21 -16 -180
-75 -202 -75 -15 0 -19 27 -6 48 5 7 15 10 23 7 8 -3 48 4 89 14 41 11 84 20
95 20 19 0 19 0 1 -14z"/>
<path d="M6821 4961 c-25 -25 -26 -35 -5 -55 21 -21 37 -20 58 3 42 46 -10 95
-53 52z"/>
<path d="M7307 5393 c-10 -17 8 -186 21 -191 20 -6 27 32 22 115 -4 62 -8 78
-22 81 -9 2 -18 -1 -21 -5z"/>
<path d="M6993 5345 c-86 -19 -122 -40 -123 -71 0 -22 30 -23 64 -4 48 29 187
48 220 31 13 -8 32 -11 40 -8 22 9 20 44 -3 57 -26 14 -122 11 -198 -5z"/>
<path d="M5764 5279 c-12 -20 20 -37 101 -54 140 -30 135 -30 135 -7 0 24 -52
47 -142 62 -79 12 -85 12 -94 -1z"/>
<path d="M6425 5271 c-36 -8 -43 -34 -47 -182 -3 -98 -2 -104 17 -105 11 0 29
-4 39 -9 14 -6 23 -3 32 9 11 16 17 16 48 6 20 -6 42 -21 50 -32 15 -20 46
-22 53 -2 7 21 -48 73 -88 84 -21 6 -39 14 -39 18 0 4 7 34 15 66 11 43 12 62
4 72 -6 7 -8 18 -4 24 9 14 -21 60 -38 59 -6 -1 -25 -4 -42 -8z m45 -86 c-4
-5 -14 -39 -20 -75 -27 -140 -37 -66 -14 93 l6 37 18 -22 c10 -13 15 -27 10
-33z"/>
<path d="M6994 5247 c-10 -27 5 -37 58 -37 29 0 67 -5 85 -12 29 -10 36 -10
43 2 7 11 3 21 -10 35 -27 27 -166 36 -176 12z"/>
<path d="M6131 5169 c-53 -32 -182 -133 -214 -167 -29 -30 -33 -62 -10 -69 7
-3 20 5 30 17 26 31 150 132 203 165 53 33 62 45 48 62 -14 17 -17 17 -57 -8z"/>
<path d="M6113 5013 c-18 -7 -16 -50 3 -57 19 -7 54 10 54 27 0 27 -28 42 -57
30z"/>
</g>
</svg>
