<?xml version="1.0" standalone="no"?>
<!DOCTYPE svg PUBLIC "-//W3C//DTD SVG 20010904//EN"
 "http://www.w3.org/TR/2001/REC-SVG-20010904/DTD/svg10.dtd">
<svg version="1.0" xmlns="http://www.w3.org/2000/svg"
 width="1584.000000pt" height="1584.000000pt" viewBox="0 0 1584.000000 1584.000000"
 preserveAspectRatio="xMidYMid meet">

<g transform="translate(0.000000,1584.000000) scale(0.100000,-0.100000)"
fill="#000000" stroke="none">
<path d="M7839 15527 c-58 -22 -93 -52 -121 -104 -40 -75 -41 -114 -9 -413 37
-339 48 -520 61 -1055 6 -231 15 -514 20 -630 5 -115 15 -327 21 -470 12 -263
8 -721 -11 -1210 -5 -132 -9 -486 -9 -786 -1 -300 -4 -802 -8 -1116 l-6 -571
-226 -6 c-522 -13 -845 -27 -1161 -51 -397 -29 -1313 -88 -1700 -110 -870 -49
-978 -58 -1530 -130 -243 -31 -386 -45 -520 -49 -232 -7 -364 -24 -656 -86
-443 -95 -731 -221 -808 -352 -13 -24 -30 -65 -37 -93 -7 -27 -23 -65 -37 -82
-32 -43 -51 -98 -52 -149 0 -56 43 -139 92 -174 68 -49 123 -56 325 -36 379
35 578 39 1763 30 630 -5 1300 -8 1490 -6 959 7 2375 24 2690 32 195 4 359 5
363 1 8 -8 32 -2442 31 -3176 0 -225 -2 -822 -4 -1325 -5 -950 -3 -1019 37
-1270 17 -100 16 -122 -5 -530 -12 -234 -30 -537 -39 -675 -20 -313 -20 -313
80 -408 40 -38 86 -75 104 -83 50 -22 132 -18 175 9 68 41 90 82 117 217 l17
85 45 5 c24 3 62 16 84 27 22 12 66 34 98 48 90 41 131 116 201 365 139 496
231 1171 276 2025 6 110 22 292 35 405 134 1121 224 2546 243 3865 l7 450 115
7 c63 4 324 12 580 18 256 6 690 20 965 30 829 32 1292 49 1660 60 193 6 402
15 465 20 63 5 329 16 590 25 607 19 774 29 987 61 249 36 335 70 413 163 40
48 42 49 113 56 156 15 236 44 298 108 100 103 84 272 -34 359 -61 44 -116 66
-263 103 -377 95 -822 138 -1401 133 -282 -2 -317 0 -643 35 -826 87 -1422
110 -2937 111 l-913 1 0 55 c0 130 -21 823 -35 1155 -35 835 -99 1821 -161
2465 -95 1000 -264 1781 -433 2005 -41 54 -105 106 -148 119 -13 4 -41 23 -64
41 -78 66 -157 69 -229 9 -36 -31 -35 -34 -50 115 -14 133 -29 188 -64 241
-50 76 -167 117 -247 87z"/>
</g>
</svg>
