<?xml version="1.0" standalone="no"?>
<!DOCTYPE svg PUBLIC "-//W3C//DTD SVG 20010904//EN"
 "http://www.w3.org/TR/2001/REC-SVG-20010904/DTD/svg10.dtd">
<svg version="1.0" xmlns="http://www.w3.org/2000/svg"
 width="1584.000000pt" height="1584.000000pt" viewBox="0 0 1584.000000 1584.000000"
 preserveAspectRatio="xMidYMid meet">

<g transform="translate(0.000000,1584.000000) scale(0.100000,-0.100000)"
fill="#3acc37" stroke="none">
<path d="M8128 15401 c-90 -30 -160 -103 -173 -181 -19 -110 55 -220 167 -248
24 -6 174 -13 333 -16 310 -6 454 -15 715 -47 1439 -173 2790 -790 3842 -1755
53 -49 185 -170 294 -269 417 -378 608 -596 857 -976 342 -522 672 -1247 862
-1894 146 -498 280 -1210 316 -1685 15 -204 6 -756 -15 -950 -94 -831 -314
-1626 -681 -2455 -145 -327 -378 -750 -613 -1110 -351 -539 -870 -1104 -1409
-1536 -311 -249 -780 -582 -1038 -736 -590 -354 -1247 -608 -2039 -788 -409
-92 -598 -117 -1016 -135 -739 -30 -1299 11 -2005 146 -609 118 -1231 335
-1800 628 -797 412 -1374 877 -2031 1636 -918 1062 -1474 2309 -1648 3700 -44
348 -51 462 -51 810 1 333 8 479 46 850 69 685 220 1277 511 2000 351 871 800
1589 1405 2245 169 184 493 498 658 640 684 588 1403 992 2393 1346 464 166
1208 350 1637 404 105 13 202 28 216 34 14 5 38 24 53 42 38 45 33 110 -12
150 -44 40 -92 43 -334 25 -445 -34 -787 -80 -1045 -141 -168 -40 -545 -149
-722 -210 -1000 -344 -2119 -1059 -2931 -1874 -721 -724 -1368 -1701 -1724
-2604 -266 -673 -462 -1537 -516 -2272 -21 -297 -9 -922 25 -1298 161 -1737
991 -3482 2184 -4591 575 -535 1284 -1024 1945 -1341 726 -348 1556 -596 2261
-674 314 -35 511 -45 860 -45 454 1 650 21 1290 134 555 97 897 190 1380 372
612 232 1345 610 1803 930 729 511 1481 1298 2050 2149 426 638 786 1437 962
2139 106 424 179 868 216 1320 21 262 30 1033 15 1341 -26 546 -107 1003 -277
1567 -232 770 -547 1390 -1100 2172 -432 611 -660 892 -902 1114 -1222 1118
-2712 1772 -4382 1921 -199 18 -791 29 -832 16z"/>
<path d="M12795 11610 c-116 -25 -259 -95 -387 -192 -270 -204 -1025 -895
-1453 -1329 -769 -781 -1516 -1719 -2300 -2889 -539 -805 -1140 -1822 -1805
-3055 -371 -689 -749 -1364 -805 -1438 -10 -14 -20 -17 -37 -12 -35 11 -332
316 -424 435 -223 287 -437 638 -888 1448 -553 995 -857 1614 -1231 2507 -161
382 -225 566 -285 810 -28 114 -60 225 -70 246 -53 104 -138 154 -249 147
-153 -9 -224 -83 -508 -525 -295 -459 -410 -658 -628 -1088 -184 -363 -275
-580 -275 -658 0 -72 19 -119 69 -168 72 -72 156 -88 247 -45 68 31 108 84
140 181 82 246 408 872 681 1305 75 118 147 234 162 258 14 23 30 41 35 39 5
-2 34 -77 66 -167 71 -205 119 -324 308 -765 333 -778 636 -1384 1160 -2325
603 -1083 834 -1431 1182 -1781 160 -162 276 -254 390 -308 70 -33 82 -36 170
-36 83 0 101 3 145 26 100 53 200 183 372 484 144 252 436 782 676 1226 451
835 689 1254 1163 2040 753 1249 1611 2425 2459 3369 236 262 801 820 1165
1150 695 629 752 685 829 814 40 66 76 163 86 228 6 39 4 49 -14 67 -25 25
-30 25 -146 1z"/>
</g>
</svg>
