<?xml version="1.0" encoding="UTF-8"?>
<!DOCTYPE svg PUBLIC "-//W3C//DTD SVG 1.1//EN" "http://www.w3.org/Graphics/SVG/1.1/DTD/svg11.dtd">
<svg xmlns="http://www.w3.org/2000/svg" version="1.1" width="4479px" height="303px" style="shape-rendering:geometricPrecision; text-rendering:geometricPrecision; image-rendering:optimizeQuality; fill-rule:evenodd; clip-rule:evenodd" xmlns:xlink="http://www.w3.org/1999/xlink">
<g><path style="opacity:0.986" fill="#59545f" d="M 2019.5,33.5 C 2054.47,33.754 2089.47,33.754 2124.5,33.5C 2168.5,34.1299 2212.5,34.9633 2256.5,36C 2347.86,39.7788 2439.19,44.1122 2530.5,49C 2779.72,64.9076 3028.72,83.4076 3277.5,104.5C 3346.04,101.551 3414.87,99.2176 3484,97.5C 3526.59,95.5436 3569.09,91.8769 3611.5,86.5C 3614.5,86.6667 3617.5,86.8333 3620.5,87C 3623.89,88.9477 3627.39,90.4477 3631,91.5C 3753.72,82.1677 3876.22,75.001 3998.5,70C 4102.27,56.7174 4206.27,52.0507 4310.5,56C 4345.86,57.3188 4381.19,58.9854 4416.5,61C 4427.13,64.7971 4433.13,72.2971 4434.5,83.5C 4450.59,104.108 4447.26,120.941 4424.5,134C 4418.06,137.22 4411.39,139.887 4404.5,142C 4402.34,148.492 4398.34,153.492 4392.5,157C 4386.08,159.753 4379.41,161.753 4372.5,163C 4363.54,172.445 4352.54,178.111 4339.5,180C 4333.06,187.885 4324.73,192.052 4314.5,192.5C 4304.22,190.619 4293.88,189.285 4283.5,188.5C 4224.76,191.732 4165.76,193.732 4106.5,194.5C 4031.99,192.862 3957.49,190.528 3883,187.5C 3742.98,191.696 3602.48,195.029 3461.5,197.5C 3337.7,203.032 3213.37,208.199 3088.5,213C 2933.62,217.355 2778.96,217.521 2624.5,213.5C 2620.12,213.529 2615.78,213.862 2611.5,214.5C 2556.84,212.935 2502.17,211.602 2447.5,210.5C 2396.9,210.648 2346.23,210.648 2295.5,210.5C 2190.14,212.856 2084.98,215.189 1980,217.5C 1873.92,218.496 1767.92,218.496 1662,217.5C 1541.27,218.537 1420.44,221.204 1299.5,225.5C 1269.46,225.386 1239.29,225.386 1209,225.5C 1130.01,223.239 1050.84,221.739 971.5,221C 894.028,227.873 816.528,230.706 739,229.5C 645.444,231.118 552.444,237.118 460,247.5C 346.237,254.465 232.404,263.298 118.5,274C 106.167,274.667 93.8333,274.667 81.5,274C 66.8261,272.427 55.9928,265.26 49,252.5C 45.1509,241.262 46.8176,230.928 54,221.5C 50.8545,207.607 54.5212,195.94 65,186.5C 69.6411,173.195 78.8077,164.695 92.5,161C 110.282,156.703 128.282,153.703 146.5,152C 157.266,148.767 168.099,145.934 179,143.5C 216.889,138.729 255.389,134.895 294.5,132C 337.976,129.85 381.309,128.35 424.5,127.5C 697.264,111.792 969.931,91.6251 1242.5,67C 1342.51,60.3136 1442.35,54.1469 1542,48.5C 1671.47,40.926 1800.81,36.5927 1930,35.5C 1959.93,34.8371 1989.76,34.1704 2019.5,33.5 Z"/></g>
</svg>
