<?xml version="1.0" standalone="no"?>
<!DOCTYPE svg PUBLIC "-//W3C//DTD SVG 20010904//EN"
 "http://www.w3.org/TR/2001/REC-SVG-20010904/DTD/svg10.dtd">
<svg version="1.0" xmlns="http://www.w3.org/2000/svg"
 width="1584.000000pt" height="1584.000000pt" viewBox="0 0 1584.000000 1584.000000"
 preserveAspectRatio="xMidYMid meet">

<g transform="translate(0.000000,1584.000000) scale(0.100000,-0.100000)"
fill="#fa0505" stroke="none">
<path d="M8128 15401 c-90 -30 -160 -103 -173 -181 -19 -110 55 -220 167 -248
24 -6 174 -13 333 -16 310 -6 454 -15 715 -47 1439 -173 2790 -790 3842 -1755
53 -49 185 -170 294 -269 417 -378 608 -596 857 -976 342 -522 672 -1247 862
-1894 146 -498 280 -1210 316 -1685 15 -204 6 -756 -15 -950 -94 -831 -314
-1626 -681 -2455 -145 -327 -378 -750 -613 -1110 -351 -539 -870 -1104 -1409
-1536 -311 -249 -780 -582 -1038 -736 -590 -354 -1247 -608 -2039 -788 -409
-92 -598 -117 -1016 -135 -739 -30 -1299 11 -2005 146 -609 118 -1231 335
-1800 628 -797 412 -1374 877 -2031 1636 -918 1062 -1474 2309 -1648 3700 -44
348 -51 462 -51 810 1 333 8 479 46 850 69 685 220 1277 511 2000 351 871 800
1589 1405 2245 169 184 493 498 658 640 684 588 1403 992 2393 1346 464 166
1208 350 1637 404 105 13 202 28 216 34 14 5 38 24 53 42 38 45 33 110 -12
150 -44 40 -92 43 -334 25 -445 -34 -787 -80 -1045 -141 -168 -40 -545 -149
-722 -210 -1000 -344 -2119 -1059 -2931 -1874 -721 -724 -1368 -1701 -1724
-2604 -266 -673 -462 -1537 -516 -2272 -21 -297 -9 -922 25 -1298 161 -1737
991 -3482 2184 -4591 575 -535 1284 -1024 1945 -1341 726 -348 1556 -596 2261
-674 314 -35 511 -45 860 -45 454 1 650 21 1290 134 555 97 897 190 1380 372
612 232 1345 610 1803 930 729 511 1481 1298 2050 2149 426 638 786 1437 962
2139 106 424 179 868 216 1320 21 262 30 1033 15 1341 -26 546 -107 1003 -277
1567 -232 770 -547 1390 -1100 2172 -432 611 -660 892 -902 1114 -1222 1118
-2712 1772 -4382 1921 -199 18 -791 29 -832 16z"/>
<path d="M12615 12596 c-158 -39 -330 -160 -950 -670 -615 -505 -1105 -942
-1855 -1650 -802 -758 -1274 -1212 -1590 -1530 -74 -75 -140 -136 -146 -136
-6 0 -69 55 -140 123 -193 182 -355 330 -489 447 -211 185 -781 659 -1070 891
-426 343 -1513 1168 -1855 1408 -96 68 -224 162 -285 210 -142 112 -200 141
-277 141 -122 0 -210 -73 -232 -193 -9 -47 15 -131 47 -168 12 -15 54 -47 92
-72 39 -25 115 -80 170 -122 55 -42 165 -122 245 -178 141 -98 601 -442 1180
-883 524 -399 1351 -1074 1764 -1441 175 -154 526 -485 526 -494 0 -4 -333
-342 -741 -750 -1705 -1711 -2234 -2287 -3084 -3354 -360 -452 -524 -681 -564
-790 -57 -153 10 -304 151 -335 112 -25 188 21 263 159 91 168 425 602 941
1221 408 489 633 742 1154 1295 262 277 1268 1300 1853 1884 l356 355 75 -68
c195 -175 1437 -1457 2020 -2086 484 -523 492 -532 866 -955 872 -986 1056
-1183 1148 -1229 82 -41 139 -45 207 -12 41 20 61 38 79 69 70 122 34 219
-160 427 -159 171 -502 553 -955 1065 -494 557 -935 1035 -1513 1640 -522 546
-1181 1219 -1325 1353 -61 57 -111 111 -111 121 0 21 768 770 1395 1361 149
140 363 343 477 451 629 599 1293 1177 2038 1775 404 325 498 432 507 584 9
133 -56 175 -212 136z"/>
</g>
</svg>
