<?xml version="1.0" standalone="no"?>
<!DOCTYPE svg PUBLIC "-//W3C//DTD SVG 20010904//EN"
 "http://www.w3.org/TR/2001/REC-SVG-20010904/DTD/svg10.dtd">
<svg version="1.0" xmlns="http://www.w3.org/2000/svg"
 width="1584.000000pt" height="1584.000000pt" viewBox="0 0 1584.000000 1584.000000"
 preserveAspectRatio="xMidYMid meet">

<g transform="translate(0.000000,1584.000000) scale(0.100000,-0.100000)"
fill="#59545f" stroke="none">
<path d="M7172 14295 c-72 -23 -165 -101 -482 -401 -36 -34 -83 -78 -105 -99
-22 -20 -94 -89 -160 -153 -560 -540 -631 -609 -785 -752 -323 -300 -775 -686
-1282 -1094 -65 -52 -173 -141 -323 -266 -585 -486 -1069 -878 -1340 -1086
-427 -327 -709 -534 -1375 -1012 -236 -170 -399 -289 -440 -322 -25 -20 -106
-83 -180 -141 -321 -248 -557 -472 -620 -589 -31 -59 -34 -73 -34 -145 0 -96
20 -142 88 -202 85 -75 209 -121 546 -204 113 -27 234 -57 270 -65 36 -8 83
-19 105 -24 22 -5 67 -15 100 -21 33 -6 94 -17 135 -26 114 -22 228 -43 300
-54 36 -5 72 -11 80 -14 19 -6 180 -30 470 -70 58 -8 146 -21 195 -29 50 -8
122 -19 160 -25 39 -6 88 -16 110 -21 l40 -11 1 -147 c1 -81 7 -160 13 -175
14 -36 15 -374 1 -592 -10 -162 -23 -418 -40 -780 -5 -110 -14 -267 -19 -350
-6 -82 -18 -274 -26 -425 -9 -151 -20 -342 -26 -425 -23 -353 -41 -1087 -35
-1435 14 -885 61 -1164 223 -1328 59 -59 131 -97 219 -113 66 -13 354 -6 444
11 110 20 469 30 740 20 146 -5 279 -12 297 -15 37 -7 324 -29 638 -51 238
-16 703 -33 721 -27 12 4 12 11 33 1008 16 744 34 902 167 1480 130 564 182
730 331 1045 102 216 328 572 420 662 80 79 348 267 458 321 158 79 176 82
455 80 287 -3 351 -13 485 -78 138 -67 196 -125 347 -345 106 -155 205 -325
238 -410 17 -44 44 -138 61 -208 16 -70 47 -199 69 -287 35 -144 52 -236 120
-660 23 -144 64 -482 80 -655 14 -150 41 -316 74 -448 35 -138 52 -239 80
-467 52 -414 79 -573 141 -825 18 -74 41 -172 50 -217 17 -80 19 -83 49 -87
121 -19 2769 -23 3276 -5 415 14 528 73 605 316 38 120 45 250 55 1008 15
1074 4 1541 -55 2450 -21 325 -43 806 -50 1105 -6 245 -30 873 -39 1031 l-5
77 31 6 c17 3 117 11 222 16 105 5 263 14 351 20 88 5 279 17 425 25 1282 74
1550 149 1528 423 -4 39 -13 65 -39 102 -63 90 -359 393 -654 670 -165 155
-546 491 -708 623 -55 45 -119 98 -141 117 -23 19 -60 49 -82 66 -415 332
-520 417 -620 500 -119 98 -325 274 -334 284 -3 3 -54 48 -115 100 -118 101
-154 134 -250 220 -33 30 -101 91 -150 135 -49 44 -119 107 -155 140 -36 33
-99 89 -140 125 -41 36 -99 88 -130 115 -30 28 -84 75 -120 105 -35 30 -85 73
-110 95 -64 58 -238 205 -276 235 -64 50 -279 225 -284 231 -6 7 -295 222
-365 271 -324 226 -670 445 -955 605 -56 32 -200 112 -260 145 -161 90 -498
266 -820 431 -564 287 -747 391 -1186 673 -110 71 -209 134 -220 141 -79 50
-214 117 -279 138 -86 28 -164 31 -233 10z"/>
</g>
</svg>