<?xml version="1.0" standalone="no"?>
<!DOCTYPE svg PUBLIC "-//W3C//DTD SVG 20010904//EN"
 "http://www.w3.org/TR/2001/REC-SVG-20010904/DTD/svg10.dtd">
<svg version="1.0" xmlns="http://www.w3.org/2000/svg"
 width="1584.000000pt" height="1584.000000pt" viewBox="0 0 1584.000000 1584.000000"
 preserveAspectRatio="xMidYMid meet">

<g transform="translate(0.000000,1584.000000) scale(0.100000,-0.100000)"
fill="#59545f" stroke="none">
<path d="M8645 14793 c-312 -38 -601 -131 -950 -303 -385 -191 -673 -394
-1100 -780 -552 -498 -854 -859 -1158 -1381 -454 -780 -617 -1254 -748 -2181
-23 -163 -46 -302 -50 -309 -5 -9 -84 -9 -346 0 -386 13 -486 24 -720 80 -231
56 -314 66 -422 52 -48 -6 -110 -11 -139 -11 -86 0 -153 -41 -196 -120 -34
-63 -42 -128 -23 -206 13 -55 13 -91 -3 -335 -30 -451 -40 -696 -50 -1284 -6
-308 -17 -733 -25 -945 -28 -717 -36 -1330 -25 -1955 5 -324 15 -860 20 -1190
13 -771 28 -1142 61 -1492 10 -107 9 -113 -13 -155 -31 -59 -32 -166 -1 -224
43 -82 131 -136 270 -168 85 -19 497 -80 693 -102 182 -20 584 -33 1045 -34
808 -1 1607 -66 2465 -201 934 -146 1275 -186 2215 -258 563 -44 1185 -65
1733 -59 l312 3 32 -34 c40 -43 101 -71 158 -71 25 0 117 9 205 20 126 16 215
20 420 19 224 0 274 2 358 20 136 28 195 68 237 163 41 92 50 205 85 1013 38
863 45 1131 45 1655 0 714 24 1425 65 1925 19 230 28 307 136 1215 113 944
126 1076 139 1344 11 221 1 511 -20 604 -42 178 -191 257 -346 185 l-59 -28
-420 1 c-393 1 -752 18 -771 37 -4 4 1 100 10 214 62 780 40 1542 -65 2263
-115 791 -349 1362 -783 1905 -103 130 -391 416 -531 529 -236 189 -538 368
-759 451 -137 51 -339 100 -484 119 -112 15 -410 20 -497 9z m235 -1083 c237
-18 349 -51 574 -169 303 -157 506 -295 669 -451 147 -141 200 -210 289 -375
186 -342 261 -522 404 -965 40 -125 58 -296 57 -555 -2 -325 -21 -779 -44
-1060 -25 -305 -33 -367 -74 -545 -18 -80 -36 -162 -40 -184 l-6 -38 -92 6
c-174 13 -363 36 -783 96 -232 33 -628 82 -880 110 -253 28 -670 75 -929 105
-997 115 -1282 135 -1992 135 l-323 0 0 123 c0 67 5 165 10 217 16 151 94 486
170 725 38 121 89 285 114 365 51 165 180 435 339 713 146 254 178 298 590
822 171 218 409 461 545 555 207 145 456 264 675 322 156 41 192 44 557 56 25
1 101 -3 170 -8z m-608 -6383 c30 -19 77 -39 103 -46 110 -28 251 -123 337
-228 34 -43 89 -107 120 -142 167 -188 277 -637 207 -844 -34 -101 -118 -254
-171 -312 -43 -47 -232 -198 -259 -207 -20 -7 -35 -997 -19 -1227 4 -56 -61
-69 -235 -43 -279 40 -457 53 -582 42 -41 -3 -56 0 -74 15 -22 20 -22 21 -15
266 4 136 11 329 16 430 5 101 12 254 16 341 l7 156 -64 32 c-145 73 -225 161
-315 345 -68 139 -103 273 -111 420 -7 138 11 237 67 377 58 146 112 232 199
318 89 88 179 150 347 235 156 80 223 103 305 104 57 1 72 -3 121 -32z"/>
</g>
</svg>
