<?xml version="1.0" standalone="no"?>
<!DOCTYPE svg PUBLIC "-//W3C//DTD SVG 20010904//EN"
 "http://www.w3.org/TR/2001/REC-SVG-20010904/DTD/svg10.dtd">
<svg version="1.0" xmlns="http://www.w3.org/2000/svg"
 width="4752.000000pt" height="1584.000000pt" viewBox="0 0 4752.000000 1584.000000"
 preserveAspectRatio="xMidYMid meet">

<g transform="translate(0.000000,1584.000000) scale(0.100000,-0.100000)"
fill="#59545f" stroke="none">
<path d="M38410 15743 c-19 -2 -136 -17 -260 -33 -335 -44 -407 -50 -734 -60
-322 -11 -759 -34 -946 -50 -63 -6 -290 -33 -505 -60 -519 -66 -632 -77 -912
-95 -290 -18 -331 -21 -558 -45 -400 -43 -730 -60 -1160 -60 -394 0 -598 15
-1185 85 -330 39 -579 49 -1265 50 -538 1 -986 18 -1315 50 -659 63 -1178 78
-2705 77 -1000 0 -1185 -2 -1340 -16 -186 -17 -587 -32 -1135 -42 -297 -5
-326 -4 -515 20 -290 37 -429 46 -694 46 -160 0 -315 7 -481 21 -237 21 -265
22 -845 11 -330 -6 -733 -10 -895 -9 -393 1 -494 -10 -953 -107 -92 -20 -256
-48 -365 -63 -170 -23 -232 -27 -457 -27 -308 0 -1303 20 -1360 28 -22 3 -193
13 -380 21 -546 24 -741 34 -1075 55 -173 11 -486 24 -695 30 -209 5 -510 15
-670 21 -331 14 -755 2 -1120 -31 -520 -48 -1490 -48 -1905 0 -553 64 -1604
86 -2150 45 -670 -51 -2802 -90 -3080 -57 -52 6 -153 19 -225 28 -110 14 -274
17 -1075 20 -520 1 -1010 8 -1090 13 -80 6 -201 13 -270 16 -69 3 -235 13
-370 22 -206 14 -276 15 -445 5 -110 -6 -234 -18 -276 -26 -119 -23 -680 -24
-774 -2 -54 13 -108 17 -235 15 -171 -2 -181 -3 -395 -38 -132 -21 -337 -70
-397 -95 -169 -71 -409 -230 -481 -319 -39 -47 -179 -302 -201 -365 -25 -69
-53 -265 -116 -792 -75 -633 -67 -547 -90 -940 -23 -383 -37 -537 -86 -948
-49 -418 -55 -544 -52 -1069 2 -346 0 -478 -9 -507 -10 -31 -9 -120 2 -425 40
-1092 42 -1307 19 -1867 -12 -310 -13 -432 -4 -669 26 -678 70 -1323 120
-1722 61 -498 66 -619 51 -1149 -14 -480 1 -2650 19 -2784 26 -189 116 -482
201 -654 71 -141 131 -226 241 -342 106 -110 196 -176 312 -230 101 -46 173
-61 356 -74 319 -22 518 -52 638 -96 75 -27 119 -36 225 -45 185 -15 1156 -15
1222 1 30 7 159 13 325 15 151 2 372 9 490 15 236 13 393 10 920 -21 424 -24
521 -32 875 -69 154 -16 395 -37 535 -45 140 -9 372 -26 515 -40 830 -78 1405
-100 1889 -75 105 6 510 17 899 25 390 8 712 17 715 19 17 10 640 27 1132 31
300 2 725 8 945 14 220 6 558 15 750 21 193 5 359 11 370 14 49 13 384 37 526
38 138 0 161 -2 203 -21 43 -19 67 -21 218 -21 98 0 268 9 406 23 214 20 284
22 717 19 334 -1 571 3 780 14 319 16 379 15 890 -16 171 -11 409 -24 530 -30
808 -38 2194 -12 3480 65 346 21 710 33 1380 45 945 18 1294 28 1761 55 551
31 888 43 1564 56 294 5 578 14 630 19 178 16 482 23 530 11 25 -6 169 -16
320 -21 364 -12 1263 -72 1725 -115 204 -19 512 -46 685 -59 807 -65 2115 -92
2550 -53 710 63 1306 79 1975 52 342 -14 616 -17 1340 -15 1438 3 2300 -4
2365 -19 62 -15 101 -33 147 -67 31 -24 33 -24 450 -35 913 -24 1083 -26 1335
-15 193 7 314 7 485 -3 146 -8 454 -12 858 -10 510 1 666 -1 820 -15 105 -9
260 -16 345 -16 85 0 232 -7 325 -14 107 -9 347 -16 650 -18 l480 -3 200 29
c187 28 220 30 510 30 387 0 1328 -19 1342 -27 20 -12 200 15 351 54 255 65
352 130 432 292 l44 88 9 222 c9 203 8 235 -12 382 -11 88 -21 212 -21 275 0
63 -9 200 -21 305 -13 122 -19 227 -16 295 17 411 31 618 49 720 11 63 23 178
28 255 4 77 16 183 26 235 16 84 18 159 19 630 0 369 -4 583 -13 689 -15 163
-10 321 24 771 25 348 28 555 10 795 -31 416 -36 653 -30 1326 4 470 3 709 -6
819 -6 85 -15 299 -20 475 -9 312 -27 597 -52 780 -7 61 -11 263 -10 620 0
586 9 724 62 1010 24 133 31 205 40 425 17 445 12 690 -30 1425 -6 99 -15 329
-20 510 -14 494 -56 899 -104 1013 -59 139 -155 277 -302 432 -108 113 -99
108 -309 144 -110 19 -193 26 -390 31 -290 7 -540 19 -815 40 -107 8 -325 22
-485 30 -299 16 -326 18 -730 61 -168 17 -341 27 -580 34 -225 6 -428 17 -600
34 -173 17 -384 29 -630 36 -203 5 -442 17 -530 25 -88 9 -362 22 -610 31
-247 8 -463 17 -480 19 -16 3 -160 19 -318 36 -262 27 -324 30 -685 33 -337 2
-421 6 -552 24 -343 46 -604 62 -760 45z m-25374 -3939 c18 -9 44 -33 56 -53
23 -35 23 -41 22 -316 -1 -154 -6 -453 -13 -665 -15 -517 -29 -1241 -41 -2135
-10 -759 -21 -1092 -45 -1390 -7 -93 -12 -171 -11 -172 1 -2 52 8 112 22 217
48 331 59 609 59 528 0 859 -79 1150 -276 178 -120 181 -123 170 -158 -6 -19
-91 -43 -191 -55 -70 -9 -253 9 -569 57 -233 35 -300 41 -495 45 -357 8 -607
-29 -808 -121 -53 -25 -115 -48 -137 -51 -110 -18 -213 62 -236 180 -5 25 1
140 16 305 42 460 52 715 75 1985 24 1316 67 2353 105 2579 8 44 23 91 33 105
49 67 127 88 198 55z m4295 -139 c34 -12 49 -13 78 -4 112 37 386 -27 535
-126 169 -112 256 -279 350 -666 85 -353 113 -513 141 -819 9 -96 27 -267 41
-379 13 -113 28 -311 34 -440 5 -130 17 -370 26 -533 14 -249 15 -324 5 -465
-20 -276 -60 -618 -91 -773 -86 -429 -270 -808 -468 -966 -76 -61 -218 -129
-322 -155 -122 -30 -366 -38 -481 -15 -151 30 -296 113 -430 245 -177 177
-262 364 -364 805 -170 733 -205 977 -212 1485 -11 712 46 1350 152 1715 106
365 298 711 514 927 133 133 226 178 367 179 48 0 99 -6 125 -15z m4144 -150
c88 -25 150 -84 171 -165 19 -75 -1 -149 -52 -189 -36 -29 -64 -26 -112 9
-110 79 -272 -2 -410 -207 -109 -161 -218 -410 -272 -620 -93 -360 -190 -1157
-190 -1562 0 -312 61 -808 136 -1100 83 -327 217 -547 378 -626 51 -25 64 -27
129 -22 106 8 279 75 395 155 103 69 209 195 275 327 91 184 126 337 134 598
l6 189 -84 -9 c-46 -4 -132 -8 -190 -7 -95 0 -112 3 -162 28 -69 33 -99 77
-100 145 -2 102 66 155 213 166 47 4 195 24 330 46 493 78 736 99 916 81 126
-14 174 -29 217 -69 67 -65 48 -171 -40 -220 -58 -32 -156 -50 -428 -78 -137
-14 -253 -25 -257 -25 -3 0 -1 -13 5 -29 9 -24 7 -33 -11 -59 l-22 -30 20
-253 c40 -493 94 -873 184 -1297 24 -114 48 -228 51 -254 4 -29 12 -48 20 -48
18 0 25 -23 25 -83 0 -95 -57 -167 -132 -167 -41 1 -102 36 -147 84 -97 106
-175 341 -241 726 -17 102 -34 200 -38 218 l-7 34 -47 -64 c-60 -81 -196 -213
-276 -267 -82 -55 -238 -132 -332 -164 -319 -108 -550 -61 -778 157 -249 239
-389 621 -471 1281 -72 574 -60 980 50 1720 82 557 169 847 343 1150 235 409
510 581 801 500z m3541 -30 c103 -18 332 -32 749 -45 182 -6 364 -15 405 -21
94 -12 183 -41 244 -79 38 -24 46 -35 46 -59 0 -64 -106 -140 -245 -176 -36
-10 -147 -21 -274 -27 l-214 -12 7 -125 c4 -69 22 -281 41 -471 42 -426 69
-769 139 -1755 71 -1002 79 -1139 80 -1451 l1 -261 165 -6 c389 -15 750 -90
750 -156 0 -24 -3 -25 -245 -81 -467 -107 -743 -144 -1085 -145 -278 0 -322 6
-405 60 -134 87 -130 276 7 346 59 30 150 24 207 -14 37 -25 49 -27 136 -27
l95 0 0 194 c0 312 -9 490 -105 1991 -19 303 -49 739 -65 970 -47 647 -51 721
-42 835 5 58 8 106 8 107 -1 1 -64 6 -141 13 -399 31 -523 86 -542 239 -6 47
31 118 76 148 40 27 89 29 207 8z m3853 -54 c46 -33 85 -119 71 -155 -5 -15
-11 -53 -11 -85 -1 -54 2 -63 73 -182 42 -68 152 -272 245 -454 268 -521 378
-711 678 -1175 346 -535 503 -811 890 -1570 244 -478 413 -792 442 -820 14
-13 15 -12 9 12 -3 15 -10 282 -16 595 -12 716 -24 1083 -55 1693 -13 267 -31
629 -40 805 -24 504 -36 705 -45 775 -14 96 -12 187 4 218 19 36 65 78 99 91
73 28 162 -5 208 -77 54 -85 78 -260 104 -762 8 -168 24 -465 35 -660 48 -876
62 -1261 80 -2160 9 -471 22 -692 50 -865 15 -92 5 -155 -31 -204 -68 -95
-189 -104 -273 -20 -36 37 -42 39 -69 29 -81 -28 -187 11 -247 92 -100 134
-309 509 -575 1033 -400 788 -577 1099 -920 1625 -204 312 -325 516 -502 845
l-113 210 0 -67 c0 -37 7 -298 15 -580 32 -1102 54 -1342 190 -2028 78 -396
115 -602 115 -641 -1 -159 -201 -239 -313 -126 -29 29 -47 60 -59 97 -17 56
-160 785 -197 1005 -64 378 -93 762 -111 1470 -6 231 -15 573 -20 760 -5 187
-13 455 -16 595 -5 233 -8 261 -30 327 -28 82 -30 129 -9 179 17 41 128 169
165 190 39 22 138 14 179 -15z"/>
<path d="M17230 11341 c-93 -33 -232 -198 -352 -416 -147 -269 -230 -545 -272
-900 -32 -274 -56 -727 -56 -1061 0 -459 34 -719 176 -1358 113 -508 163 -638
298 -770 121 -118 214 -152 391 -143 183 9 310 62 389 163 113 144 231 443
280 713 21 110 62 485 76 684 9 127 8 212 -4 425 -9 147 -20 380 -26 517 -5
138 -21 342 -35 455 -13 113 -31 284 -40 380 -22 244 -57 444 -130 737 -84
340 -122 417 -228 466 -29 14 -95 37 -147 52 -52 15 -113 36 -135 47 -60 29
-121 32 -185 9z"/>
<path d="M25348 3 c7 -3 16 -2 19 1 4 3 -2 6 -13 5 -11 0 -14 -3 -6 -6z"/>
</g>
</svg>
