<?xml version="1.0" encoding="UTF-8"?>
<!DOCTYPE svg PUBLIC "-//W3C//DTD SVG 1.1//EN" "http://www.w3.org/Graphics/SVG/1.1/DTD/svg11.dtd">
<svg xmlns="http://www.w3.org/2000/svg" version="1.1" width="1584px" height="1584px" style="shape-rendering:geometricPrecision; text-rendering:geometricPrecision; image-rendering:optimizeQuality; fill-rule:evenodd; clip-rule:evenodd" xmlns:xlink="http://www.w3.org/1999/xlink">
<g><path style="opacity:0.964" fill="#f5f5f5" d="M 1221.5,361.5 C 1222.01,363.105 1222.67,363.439 1223.5,362.5C 1227.82,366.614 1232.32,370.614 1237,374.5C 1237.48,375.448 1237.65,376.448 1237.5,377.5C 1239.43,377.729 1241.1,378.562 1242.5,380C 1260.79,398.287 1278.29,417.12 1295,436.5C 1295.48,437.448 1295.65,438.448 1295.5,439.5C 1296.5,439.5 1297.5,439.5 1298.5,439.5C 1306.9,451.919 1316.07,463.919 1326,475.5C 1334.21,487.964 1342.88,499.964 1352,511.5C 1370.52,480.976 1396.68,460.142 1430.5,449C 1467.19,441.874 1498.69,451.374 1525,477.5C 1553.76,511.198 1572.1,549.865 1580,593.5C 1581.74,605.587 1582.91,617.587 1583.5,629.5C 1583.5,632.167 1583.5,634.833 1583.5,637.5C 1580.87,660.368 1574.37,682.034 1564,702.5C 1548.22,730.623 1524.72,748.456 1493.5,756C 1486.17,756.5 1478.84,756.666 1471.5,756.5C 1483.71,799.781 1492.05,843.781 1496.5,888.5C 1496.33,892.514 1496.5,896.514 1497,900.5C 1497.28,901.416 1497.78,902.082 1498.5,902.5C 1502.09,955.622 1500.92,1008.62 1495,1061.5C 1488.47,1111.09 1475.47,1158.76 1456,1204.5C 1443.3,1231.88 1427.3,1257.21 1408,1280.5C 1407.52,1281.45 1407.35,1282.45 1407.5,1283.5C 1406.5,1283.5 1405.5,1283.5 1404.5,1283.5C 1404.65,1284.55 1404.48,1285.55 1404,1286.5C 1397.17,1294.33 1390.34,1302.16 1383.5,1310C 1382.55,1310.48 1381.55,1310.65 1380.5,1310.5C 1378.69,1314 1376.02,1317 1372.5,1319.5C 1369.72,1322.78 1366.72,1325.95 1363.5,1329C 1362.55,1329.48 1361.55,1329.65 1360.5,1329.5C 1357.79,1333.72 1354.46,1337.56 1350.5,1341C 1291.39,1388.4 1225.72,1424.06 1153.5,1448C 969.235,1505.8 783.902,1509.47 597.5,1459C 579.588,1453.01 561.588,1447.01 543.5,1441C 530.222,1435.29 516.888,1429.45 503.5,1423.5C 503.027,1422.09 502.027,1421.43 500.5,1421.5C 481.551,1413.57 463.217,1404.41 445.5,1394C 333.548,1324.76 254.382,1228.59 208,1105.5C 194.615,1069.64 184.615,1032.64 178,994.5C 168.602,1001.42 158.102,1005.08 146.5,1005.5C 138.2,1006.37 129.867,1006.7 121.5,1006.5C 92.9989,1001.32 69.1656,987.656 50,965.5C 16.8995,925.258 0.0661668,878.925 -0.5,826.5C -0.5,824.167 -0.5,821.833 -0.5,819.5C 2.5633,767.535 24.8966,726.035 66.5,695C 105.825,670.848 146.158,669.181 187.5,690C 191.353,692.228 195.02,694.728 198.5,697.5C 199.086,697.291 199.586,696.957 200,696.5C 231.491,590.387 279.825,492.72 345,403.5C 345.667,402.167 345.667,400.833 345,399.5C 333.332,387.816 325.999,373.816 323,357.5C 321.529,344.813 321.529,332.146 323,319.5C 330.582,289.456 343.915,262.123 363,237.5C 389.013,203.818 419.513,174.984 454.5,151C 469.576,142.22 485.242,134.887 501.5,129C 512.344,126.359 523.344,124.693 534.5,124C 547.868,108.825 564.202,98.4914 583.5,93C 614.896,88.0978 638.73,98.9311 655,125.5C 656.823,129.806 658.323,134.14 659.5,138.5C 666.246,135.609 672.913,132.442 679.5,129C 705.529,123.58 727.362,130.747 745,150.5C 746.951,153.786 749.285,156.786 752,159.5C 755.503,166.018 759.003,172.518 762.5,179C 790.822,177.913 812.655,189.413 828,213.5C 829.562,211.043 830.562,208.376 831,205.5C 834.869,201.153 839.369,197.653 844.5,195C 848.211,194.156 851.877,193.156 855.5,192C 858.202,184.788 862.536,178.622 868.5,173.5C 857.164,170.377 846.497,165.544 836.5,159C 829.304,153.587 824.638,146.587 822.5,138C 821.733,124.527 826.733,113.194 837.5,104C 846.174,97.9931 855.507,93.6598 865.5,91C 904.075,87.9246 940.408,95.2579 974.5,113C 1003.33,129.161 1023.5,152.661 1035,183.5C 1040.75,201.859 1039.58,219.692 1031.5,237C 1067.23,255.031 1102.23,274.365 1136.5,295C 1153.26,306.839 1169.92,318.839 1186.5,331C 1198.67,340.68 1210.34,350.847 1221.5,361.5 Z M 935.5,191.5 C 938.838,192.513 941.504,194.513 943.5,197.5C 938.735,198.54 936.068,196.54 935.5,191.5 Z M 484.5,218.5 C 481.531,232.84 478.365,247.174 475,261.5C 472.323,264.509 469.323,267.176 466,269.5C 465.517,270.448 465.351,271.448 465.5,272.5C 461.738,273.548 458.405,275.381 455.5,278C 451.833,282 448.167,286 444.5,290C 442.833,291 441.167,292 439.5,293C 426.639,305.949 414.139,319.115 402,332.5C 401.802,328.404 402.469,324.404 404,320.5C 416.89,292.901 433.89,267.901 455,245.5C 464.078,235.585 473.912,226.585 484.5,218.5 Z M 840.5,238.5 C 844.281,240.112 848.281,241.112 852.5,241.5C 850.77,247.432 848.27,253.098 845,258.5C 843.392,251.847 841.892,245.181 840.5,238.5 Z M 617.5,271.5 C 619.492,296.473 623.825,321.14 630.5,345.5C 630.136,347.693 629.136,349.527 627.5,351C 615.851,362.33 602.851,371.664 588.5,379C 586.5,379.667 584.5,379.667 582.5,379C 577.946,375.113 574.113,370.613 571,365.5C 566.509,355.695 563.009,345.529 560.5,335C 573.321,321.512 586.154,308.012 599,294.5C 605.175,286.803 611.342,279.136 617.5,271.5 Z M 1059.5,1420.5 C 1058.83,1420.5 1058.17,1420.5 1057.5,1420.5C 1008.46,1431.62 958.795,1438.28 908.5,1440.5C 897.683,1441.07 887.017,1441.74 876.5,1442.5C 861.375,1442.43 846.375,1442.43 831.5,1442.5C 822.318,1441.72 812.985,1441.06 803.5,1440.5C 713.968,1436.26 627.635,1418.26 544.5,1386.5C 471.471,1356.41 408.471,1312.41 355.5,1254.5C 354.614,1253.68 354.281,1252.68 354.5,1251.5C 353.448,1251.65 352.448,1251.48 351.5,1251C 346.649,1244.98 341.983,1238.81 337.5,1232.5C 336.675,1231.61 335.675,1231.28 334.5,1231.5C 334.762,1230.02 334.429,1228.69 333.5,1227.5C 323.081,1214.07 313.415,1200.07 304.5,1185.5C 303.675,1184.61 302.675,1184.28 301.5,1184.5C 301.657,1183.13 301.49,1181.79 301,1180.5C 252.839,1100.58 226.506,1013.58 222,919.5C 220.45,854.738 227.783,791.072 244,728.5C 274.233,616.974 324.067,515.141 393.5,423C 418.637,423.175 442.304,417.509 464.5,406C 473.313,401.093 481.98,395.926 490.5,390.5C 501.17,416.003 518.17,436.17 541.5,451C 560.298,461.186 580.298,464.186 601.5,460C 615.625,456.626 628.958,451.292 641.5,444C 653.441,435.775 664.941,426.942 676,417.5C 705.393,439.677 736.559,442.51 769.5,426C 795.556,410.28 814.889,388.614 827.5,361C 874.809,353.356 907.809,327.523 926.5,283.5C 948.061,285.18 969.061,282.513 989.5,275.5C 1059.95,304.891 1124.29,344.224 1182.5,393.5C 1188.59,399.277 1194.59,405.111 1200.5,411C 1201.45,411.483 1202.45,411.649 1203.5,411.5C 1204.16,414.713 1206.16,416.879 1209.5,418C 1217.55,426.596 1225.72,435.096 1234,443.5C 1238.63,449.802 1243.63,455.802 1249,461.5C 1250.01,462.337 1251.18,462.67 1252.5,462.5C 1252.24,463.978 1252.57,465.311 1253.5,466.5C 1265.47,481.476 1277.47,496.476 1289.5,511.5C 1303.11,531.162 1316.61,550.829 1330,570.5C 1333.49,576.481 1336.16,582.814 1338,589.5C 1345.78,598.95 1352.78,608.95 1359,619.5C 1437.03,761.945 1464.36,914.279 1441,1076.5C 1435.44,1105.47 1428.11,1133.81 1419,1161.5C 1405.26,1196.33 1386.43,1228 1362.5,1256.5C 1361.57,1257.69 1361.24,1259.02 1361.5,1260.5C 1360.45,1260.35 1359.45,1260.52 1358.5,1261C 1351.51,1269.33 1344.17,1277.33 1336.5,1285C 1304.44,1313.67 1269.44,1338.67 1231.5,1360C 1176.95,1387.76 1119.62,1407.92 1059.5,1420.5 Z M 743.5,330.5 C 746.955,331.128 748.122,333.128 747,336.5C 743.522,341.279 739.689,345.779 735.5,350C 733.945,351.289 732.279,351.956 730.5,352C 735.479,345.196 739.812,338.029 743.5,330.5 Z M 1451.5,528.5 C 1456.33,528.562 1460.33,530.396 1463.5,534C 1487.29,563.814 1498.46,597.981 1497,636.5C 1495.68,649.295 1490.52,660.128 1481.5,669C 1479.83,669.667 1478.17,669.667 1476.5,669C 1464.04,661.563 1450.38,657.896 1435.5,658C 1425.92,638.014 1415.92,618.181 1405.5,598.5C 1407.68,590.919 1408.02,583.252 1406.5,575.5C 1413.27,557.145 1424.94,542.645 1441.5,532C 1444.74,530.308 1448.07,529.141 1451.5,528.5 Z M 126.5,756.5 C 137.812,756.11 148.479,758.61 158.5,764C 165.655,771.323 172.655,778.823 179.5,786.5C 175.939,808.053 173.439,829.72 172,851.5C 171.833,869.842 171.333,888.176 170.5,906.5C 160.505,915.328 148.838,920.662 135.5,922.5C 129.674,921.894 124.674,919.56 120.5,915.5C 105.908,902.412 96.0747,886.412 91,867.5C 83.4204,845.014 82.4204,822.347 88,799.5C 94.0734,778.936 106.907,764.602 126.5,756.5 Z"/></g>
<g><path style="opacity:0.004" fill="#0000dd" d="M 1221.5,361.5 C 1222.49,361.328 1223.16,361.662 1223.5,362.5C 1222.67,363.439 1222.01,363.105 1221.5,361.5 Z"/></g>
<g><path style="opacity:0.904" fill="#f5f5f5" d="M 1008.5,388.5 C 1024.99,385.54 1038.83,390.206 1050,402.5C 1054.16,408.84 1055.99,415.84 1055.5,423.5C 1056.61,430.4 1054.94,436.4 1050.5,441.5C 1047.89,442.652 1045.23,442.818 1042.5,442C 1031.15,437.581 1019.82,432.915 1008.5,428C 996.46,421.891 992.627,412.391 997,399.5C 1000.07,394.927 1003.9,391.261 1008.5,388.5 Z"/></g>
<g><path style="opacity:0.969" fill="#f5f5f5" d="M 954.5,732.5 C 954.715,730.821 954.048,729.821 952.5,729.5C 926.227,667.394 909.06,602.394 901,534.5C 900.501,529.845 900.334,525.179 900.5,520.5C 899.167,505.167 899.167,489.833 900.5,474.5C 899.562,454.485 904.895,436.485 916.5,420.5C 931.234,405.775 948.568,401.941 968.5,409C 977.52,413.683 985.02,420.183 991,428.5C 1000.33,442.833 1008.33,457.833 1015,473.5C 1056.65,593.355 1087.65,716.355 1108,842.5C 1109.43,862.379 1101.93,877.879 1085.5,889C 1061.74,896.94 1042.91,890.44 1029,869.5C 1015.23,847.303 1003.57,823.97 994,799.5C 989.851,795.251 985.684,790.918 981.5,786.5C 970.344,769.521 961.344,751.521 954.5,732.5 Z"/></g>
<g><path style="opacity:0.968" fill="#f5f5f5" d="M 593.5,648.5 C 593.586,655.037 594.253,661.37 595.5,667.5C 595.5,714.5 595.5,761.5 595.5,808.5C 594.025,824.31 593.358,840.31 593.5,856.5C 594.152,874.292 592.985,891.959 590,909.5C 582.457,934.845 565.623,946.012 539.5,943C 529.059,939.566 520.559,933.399 514,924.5C 507.289,913.745 501.623,902.412 497,890.5C 486.323,845.435 478.99,799.769 475,753.5C 472.235,719.872 470.068,686.205 468.5,652.5C 467.727,628.842 467.393,605.175 467.5,581.5C 467.808,548.479 475.308,517.479 490,488.5C 504.101,467.738 522.934,461.905 546.5,471C 552.958,475.124 558.458,480.29 563,486.5C 567.128,495.382 570.794,504.382 574,513.5C 584.348,557.955 590.848,602.955 593.5,648.5 Z"/></g>
<g><path style="opacity:0.004" fill="#f5f5f5" d="M 900.5,474.5 C 899.167,489.833 899.167,505.167 900.5,520.5C 899.01,513.056 898.344,505.389 898.5,497.5C 898.344,489.611 899.01,481.944 900.5,474.5 Z"/></g>
<g><path style="opacity:0.92" fill="#f5f5f5" d="M 441.5,495.5 C 444.685,495.02 447.519,495.686 450,497.5C 449.905,515.935 448.239,534.269 445,552.5C 442.594,561.444 440.594,570.444 439,579.5C 427.044,596.465 412.877,598.632 396.5,586C 392.07,579.469 389.737,572.135 389.5,564C 391.055,544.969 398.555,528.803 412,515.5C 416.674,511.657 421.174,507.657 425.5,503.5C 431.065,500.823 436.399,498.156 441.5,495.5 Z"/></g>
<g><path style="opacity:0.004" fill="#000000" d="M 467.5,581.5 C 467.393,605.175 467.727,628.842 468.5,652.5C 467.026,638.195 466.36,623.695 466.5,609C 466.5,599.66 466.834,590.494 467.5,581.5 Z"/></g>
<g><path style="opacity:0.004" fill="#000000" d="M 593.5,648.5 C 594.996,654.605 595.663,660.938 595.5,667.5C 594.253,661.37 593.586,655.037 593.5,648.5 Z"/></g>
<g><path style="opacity:0.008" fill="f5f5f5" d="M 952.5,729.5 C 954.048,729.821 954.715,730.821 954.5,732.5C 953.094,732.027 952.427,731.027 952.5,729.5 Z"/></g>
<g><path style="opacity:0.949" fill="#f5f5f5" d="M 680.5,907.5 C 680.573,905.973 679.906,904.973 678.5,904.5C 670.171,892.159 667.338,878.492 670,863.5C 674.159,850.151 680.659,838.151 689.5,827.5C 690.325,826.614 691.325,826.281 692.5,826.5C 692.351,825.448 692.517,824.448 693,823.5C 710.405,807.129 730.238,794.296 752.5,785C 766.637,779.842 780.97,775.509 795.5,772C 840.845,761.694 881.512,770.527 917.5,798.5C 919.545,800.841 921.545,803.174 923.5,805.5C 924.325,806.386 925.325,806.719 926.5,806.5C 944.406,830.38 955.239,857.38 959,887.5C 961.522,910.469 956.522,931.469 944,950.5C 942.676,953.244 940.509,954.577 937.5,954.5C 937.67,955.822 937.337,956.989 936.5,958C 933.079,959.475 929.746,961.141 926.5,963C 921.833,963.667 917.167,963.667 912.5,963C 910.974,961.113 908.974,960.113 906.5,960C 897.587,953 894.421,943.833 897,932.5C 905.669,919.206 909.002,904.539 907,888.5C 898.963,835.819 868.129,813.319 814.5,821C 783.441,825.306 755.774,837.14 731.5,856.5C 730.996,859.342 729.329,860.675 726.5,860.5C 725.292,863.919 723.792,867.253 722,870.5C 721.333,873.5 721.333,876.5 722,879.5C 728.542,887.236 736.709,892.403 746.5,895C 771.967,901.395 797.634,907.062 823.5,912C 827.952,914.011 832.286,916.178 836.5,918.5C 837.429,919.689 837.762,921.022 837.5,922.5C 838.822,922.33 839.989,922.663 841,923.5C 842.584,927.515 843.75,931.682 844.5,936C 843.232,940.065 842.066,944.232 841,948.5C 839.989,949.337 838.822,949.67 837.5,949.5C 837.52,951.143 836.853,952.476 835.5,953.5C 833.577,954.308 831.577,954.808 829.5,955C 828.833,956 828.167,957 827.5,958C 825,958.167 822.5,958.333 820,958.5C 797.587,954.611 775.087,950.778 752.5,947C 744.573,944.788 736.573,942.788 728.5,941C 723.159,937.913 717.492,935.579 711.5,934C 702.825,929.603 694.825,924.437 687.5,918.5C 687.762,917.022 687.429,915.689 686.5,914.5C 683.757,912.761 681.757,910.427 680.5,907.5 Z"/></g>
<g><path style="opacity:0.005" fill="#050109" d="M 595.5,808.5 C 595.888,824.701 595.222,840.701 593.5,856.5C 593.358,840.31 594.025,824.31 595.5,808.5 Z"/></g>
<g><path style="opacity:0.933" fill="#f5f5f5" d="M 1155.5,851.5 C 1161.4,850.488 1166.57,851.821 1171,855.5C 1188.44,880.125 1191.11,906.459 1179,934.5C 1174.22,945.876 1166.72,955.043 1156.5,962C 1138.22,968.803 1124.39,963.636 1115,946.5C 1113.18,935.924 1114.18,925.59 1118,915.5C 1121.79,906.939 1125.46,898.273 1129,889.5C 1133.16,883.843 1136.83,877.843 1140,871.5C 1145.41,864.933 1150.58,858.267 1155.5,851.5 Z"/></g>
<g><path style="opacity:0.005" fill="#000000" d="M 1496.5,888.5 C 1497.42,892.995 1498.09,897.662 1498.5,902.5C 1497.78,902.082 1497.28,901.416 1497,900.5C 1496.5,896.514 1496.33,892.514 1496.5,888.5 Z"/></g>
<g><path style="opacity:0.004" fill="#0000e4" d="M 678.5,904.5 C 679.906,904.973 680.573,905.973 680.5,907.5C 679.094,907.027 678.427,906.027 678.5,904.5 Z"/></g>
<g><path style="opacity:0.932" fill="#f5f5f5" d="M 447.5,924.5 C 454.175,924.334 460.842,924.5 467.5,925C 469.156,926.829 471.156,928.163 473.5,929C 475.333,931.5 477.167,934 479,936.5C 490.269,961.372 501.269,986.372 512,1011.5C 513.767,1018.37 511.601,1023.53 505.5,1027C 502.3,1027.1 499.3,1027.77 496.5,1029C 477.344,1029.38 461.844,1021.88 450,1006.5C 434.99,989.766 428.323,970.1 430,947.5C 430.994,941.847 433.327,936.847 437,932.5C 440.422,929.558 443.922,926.891 447.5,924.5 Z"/></g>
<g><path style="opacity:0.004" fill="#000000" d="M 146.5,1005.5 C 145.737,1006.27 144.737,1006.77 143.5,1007C 135.988,1007.82 128.655,1007.66 121.5,1006.5C 129.867,1006.7 138.2,1006.37 146.5,1005.5 Z"/></g>
<g><path style="opacity:0.938" fill="#f5f5f5" d="M 1161.5,1105.5 C 1165.18,1105.33 1168.85,1105.5 1172.5,1106C 1181.68,1109.85 1189.84,1115.35 1197,1122.5C 1198.44,1123.9 1199.27,1125.57 1199.5,1127.5C 1200.5,1127.5 1201.5,1127.5 1202.5,1127.5C 1207.46,1135.76 1211.63,1144.43 1215,1153.5C 1215.67,1162.83 1215.67,1172.17 1215,1181.5C 1205.06,1210.08 1188.22,1233.58 1164.5,1252C 1160.76,1252.36 1157.42,1253.69 1154.5,1256C 1152.5,1256.67 1150.5,1256.67 1148.5,1256C 1143.04,1254.07 1137.87,1251.57 1133,1248.5C 1132.52,1247.55 1132.35,1246.55 1132.5,1245.5C 1131.18,1245.67 1130.01,1245.34 1129,1244.5C 1128.78,1241.51 1127.78,1238.85 1126,1236.5C 1124.28,1222.44 1129.78,1212.28 1142.5,1206C 1154.57,1194.94 1163.24,1181.6 1168.5,1166C 1167.17,1161.51 1165.17,1157.34 1162.5,1153.5C 1159.48,1151 1156.48,1148.5 1153.5,1146C 1152.55,1145.52 1151.55,1145.35 1150.5,1145.5C 1150.72,1142.89 1149.56,1141.22 1147,1140.5C 1144.68,1134.7 1144.02,1128.7 1145,1122.5C 1146.37,1118.42 1148.2,1114.76 1150.5,1111.5C 1154.6,1110.28 1158.27,1108.28 1161.5,1105.5 Z"/></g>
<g><path style="opacity:0.949" fill="#f5f5f5" d="M 982.5,1142.5 C 984.027,1142.57 985.027,1141.91 985.5,1140.5C 996.684,1136.13 1008.35,1133.8 1020.5,1133.5C 1041.85,1135.94 1063.18,1138.44 1084.5,1141C 1093.05,1142.39 1100.21,1146.23 1106,1152.5C 1106.19,1154.58 1106.69,1156.58 1107.5,1158.5C 1108.8,1159.09 1109.63,1160.09 1110,1161.5C 1110.19,1177.66 1102.36,1187.83 1086.5,1192C 1082.5,1192.67 1078.5,1192.67 1074.5,1192C 1056.48,1189.82 1038.48,1187.66 1020.5,1185.5C 1016.83,1185.67 1013.17,1185.83 1009.5,1186C 995.449,1191.75 981.116,1196.75 966.5,1201C 960.613,1201.47 954.78,1202.3 949,1203.5C 934.567,1202.1 920.734,1198.6 907.5,1193C 897.848,1191.2 888.182,1191.2 878.5,1193C 863.199,1198.47 847.365,1201.3 831,1201.5C 822.668,1201.84 814.502,1201 806.5,1199C 793.851,1192.95 780.851,1187.78 767.5,1183.5C 763.185,1180.94 758.852,1180.94 754.5,1183.5C 749.83,1184.22 745.163,1185.05 740.5,1186C 724.475,1192.84 707.809,1197.84 690.5,1201C 668.528,1203.01 649.528,1196.68 633.5,1182C 628.993,1178.67 624.327,1175.5 619.5,1172.5C 613.289,1175.87 606.956,1179.04 600.5,1182C 596.017,1186.07 591.351,1189.91 586.5,1193.5C 586.395,1197.6 584.395,1200.27 580.5,1201.5C 579.452,1204.83 577.118,1206.33 573.5,1206C 570.887,1208.54 567.72,1209.71 564,1209.5C 559.994,1209.63 556.494,1208.46 553.5,1206C 551.833,1205.67 550.167,1205.33 548.5,1205C 547.663,1203.99 547.33,1202.82 547.5,1201.5C 545.097,1201.61 543.264,1200.61 542,1198.5C 539.783,1194.6 538.616,1190.27 538.5,1185.5C 539.146,1179.52 540.98,1173.85 544,1168.5C 556.406,1156.78 569.739,1146.12 584,1136.5C 592.542,1131.98 601.375,1128.15 610.5,1125C 627.578,1123.06 642.911,1127.22 656.5,1137.5C 657.386,1138.32 657.719,1139.32 657.5,1140.5C 663.171,1142.79 668.505,1145.62 673.5,1149C 679.167,1149.67 684.833,1149.67 690.5,1149C 706.147,1144.04 721.814,1139.04 737.5,1134C 755.494,1129.85 773.161,1130.85 790.5,1137C 800.033,1140.75 809.366,1144.75 818.5,1149C 822.79,1150.13 827.123,1150.97 831.5,1151.5C 847.589,1147.57 863.922,1144.07 880.5,1141C 902.013,1139.11 922.68,1142.44 942.5,1151C 946.833,1151.67 951.167,1151.67 955.5,1151C 962.891,1148.65 970.224,1145.98 977.5,1143C 979.134,1142.51 980.801,1142.34 982.5,1142.5 Z"/></g>
<g><path style="opacity:0.959" fill="#f5f5f5" d="M 493.5,1136.5 C 506.934,1137.77 514.767,1145.1 517,1158.5C 516.763,1181.43 521.763,1203.1 532,1223.5C 535.251,1228.76 539.251,1233.42 544,1237.5C 552.178,1248.61 552.511,1259.94 545,1271.5C 536.435,1280.18 526.268,1282.68 514.5,1279C 491.886,1270.29 477.72,1254.13 472,1230.5C 464.43,1204.72 464.764,1179.05 473,1153.5C 476.771,1143.88 483.604,1138.21 493.5,1136.5 Z"/></g>
<g><path style="opacity:0.008" fill="#f5f5f5" d="M 985.5,1140.5 C 985.027,1141.91 984.027,1142.57 982.5,1142.5C 982.973,1141.09 983.973,1140.43 985.5,1140.5 Z"/></g>
<g><path style="opacity:0.005" fill="#000000" d="M 767.5,1183.5 C 763.181,1182.33 758.847,1182.33 754.5,1183.5C 758.852,1180.94 763.185,1180.94 767.5,1183.5 Z"/></g>
<g><path style="opacity:0.012" fill="#f5f5f5" d="M 1057.5,1420.5 C 1058.17,1420.5 1058.83,1420.5 1059.5,1420.5C 1057.61,1423.19 1056.94,1423.19 1057.5,1420.5 Z"/></g>
<g><path style="opacity:0.008" fill="#f5f5f5" d="M 500.5,1421.5 C 502.027,1421.43 503.027,1422.09 503.5,1423.5C 501.973,1423.57 500.973,1422.91 500.5,1421.5 Z"/></g>
<g><path style="opacity:0.004" fill="#f5f5f5" d="M 803.5,1440.5 C 812.985,1441.06 822.318,1441.72 831.5,1442.5C 822.494,1442.67 813.494,1442.5 804.5,1442C 803.944,1441.62 803.611,1441.12 803.5,1440.5 Z"/></g>
<g><path style="opacity:0.004" fill="#020005" d="M 908.5,1440.5 C 908.389,1441.12 908.056,1441.62 907.5,1442C 897.172,1442.5 886.839,1442.67 876.5,1442.5C 887.017,1441.74 897.683,1441.07 908.5,1440.5 Z"/></g>
</svg>
