<?xml version="1.0" standalone="no"?>
<!DOCTYPE svg PUBLIC "-//W3C//DTD SVG 20010904//EN"
 "http://www.w3.org/TR/2001/REC-SVG-20010904/DTD/svg10.dtd">
<svg version="1.0" xmlns="http://www.w3.org/2000/svg"
 width="1584.000000pt" height="1584.000000pt" viewBox="0 0 1584.000000 1584.000000"
 preserveAspectRatio="xMidYMid meet">

<g transform="translate(0.000000,1584.000000) scale(0.100000,-0.100000)"
fill="#f5f5f5" stroke="none">
<path d="M8400 15484 c-239 -32 -447 -68 -748 -128 -174 -36 -411 -83 -526
-105 -255 -50 -380 -91 -651 -215 -351 -161 -428 -202 -606 -322 -94 -64 -239
-156 -321 -205 -182 -109 -233 -143 -418 -280 -80 -59 -218 -151 -308 -204
-89 -53 -160 -100 -158 -103 2 -4 91 -167 198 -362 108 -195 628 -1142 1158
-2105 530 -962 1060 -1928 1180 -2145 828 -1506 1045 -1898 1067 -1917 19 -19
22 -26 13 -43 -12 -23 -37 -26 -65 -6 -11 7 -369 197 -795 421 -727 382 -976
513 -1970 1035 -217 114 -699 367 -1070 562 -371 196 -745 392 -830 436 -85
45 -389 205 -675 355 -286 151 -521 274 -522 273 -1 -1 16 -54 38 -119 85
-252 103 -388 89 -667 -5 -107 -14 -334 -20 -505 -6 -170 -17 -375 -25 -455
-8 -80 -19 -260 -25 -400 -13 -313 -24 -452 -56 -690 -35 -256 -42 -322 -59
-584 -26 -404 -19 -546 41 -819 19 -86 57 -269 84 -405 71 -357 143 -602 236
-801 24 -52 44 -98 44 -102 0 -56 -147 130 -227 287 -89 172 -126 300 -208
702 -24 119 -58 282 -75 362 -28 130 -32 168 -37 360 -6 237 14 584 48 845 11
83 28 220 39 305 11 85 27 303 35 485 9 181 22 389 30 460 8 72 19 254 25 405
5 151 17 388 25 525 16 252 14 316 -16 465 -28 141 -116 410 -134 410 -8 0
-20 8 -27 18 -13 19 -625 348 -632 341 -17 -17 -99 -171 -266 -499 -214 -419
-255 -490 -561 -990 -113 -184 -235 -384 -271 -445 l-65 -110 -84 0 c-132 0
-222 -53 -275 -161 -26 -53 -26 -55 -22 -226 6 -187 27 -322 93 -597 123 -504
351 -1148 683 -1926 111 -260 455 -963 607 -1240 254 -462 499 -829 927 -1387
227 -296 321 -410 533 -643 275 -304 565 -576 805 -754 145 -109 492 -342 660
-444 339 -205 1337 -734 1730 -916 414 -192 1184 -371 1709 -397 l128 -7 7 89
c4 49 21 211 36 359 49 456 60 584 67 760 3 94 10 178 15 188 14 28 64 22 85
-10 46 -70 -6 -762 -92 -1226 -14 -75 -25 -144 -25 -153 0 -15 32 -16 368 -11
394 5 454 10 866 73 688 105 1658 333 2096 491 255 93 409 166 714 338 313
176 485 295 886 613 400 318 756 672 1099 1096 66 82 190 223 275 315 142 152
267 298 266 311 -1 3 -51 36 -113 74 -135 84 -377 249 -702 481 -132 93 -259
183 -283 199 -57 39 -68 60 -47 92 36 55 85 30 474 -244 391 -274 579 -426
656 -531 17 -22 33 -39 38 -38 4 1 59 74 122 162 175 242 303 503 426 864 151
445 230 744 294 1115 20 116 49 271 65 345 61 290 65 354 65 1046 l0 630 -27
190 c-43 297 -48 363 -58 795 -10 437 -14 476 -79 819 -22 113 -51 271 -65
351 -14 80 -50 237 -81 350 -31 113 -118 450 -195 750 -174 684 -214 815 -334
1080 -68 151 -192 384 -266 500 -142 221 -360 453 -570 605 -68 50 -182 137
-254 194 -291 233 -860 645 -1261 912 -167 111 -328 198 -575 310 -129 58
-278 128 -330 154 -505 255 -1187 553 -1575 689 -283 99 -739 221 -941 251
-123 19 -381 18 -524 -1z m700 -1198 c58 -8 152 -26 210 -39 58 -14 166 -37
241 -51 124 -24 218 -52 524 -160 101 -35 120 -51 95 -81 -26 -31 -106 -16
-370 70 -74 24 -191 53 -260 65 -68 11 -181 34 -250 50 -69 16 -163 34 -210
40 -126 15 -497 12 -746 -6 -134 -10 -354 -17 -569 -18 -310 -1 -372 2 -540
22 -223 28 -235 30 -235 41 0 17 63 21 470 30 374 9 561 17 905 41 198 13 621
11 735 -4z m2056 -101 c3 -8 -65 -154 -154 -327 -412 -807 -553 -1088 -557
-1107 -4 -23 -111 -295 -169 -428 -65 -152 -454 -968 -497 -1043 -37 -65 -186
-374 -227 -470 -22 -52 -58 -157 -81 -232 -22 -76 -92 -267 -155 -425 -63
-159 -141 -360 -174 -448 -33 -88 -102 -263 -152 -390 -130 -324 -154 -386
-224 -595 -103 -303 -262 -797 -297 -920 -17 -63 -44 -159 -59 -214 -15 -54
-37 -110 -47 -125 -27 -36 -60 -39 -74 -7 -14 29 5 145 46 281 13 44 36 130
50 190 23 101 142 470 253 790 25 72 116 309 204 528 87 219 192 489 232 600
134 367 273 690 350 812 17 28 58 113 91 190 32 77 91 204 130 281 57 111 73
154 78 201 8 77 38 160 133 363 42 91 100 221 130 288 70 159 189 394 255 502
28 47 183 347 344 666 l294 582 -37 -10 c-109 -30 -421 53 -497 132 -33 35
-31 71 6 84 21 7 44 0 127 -38 121 -55 241 -86 338 -86 38 0 75 -5 81 -11 8
-8 16 -3 28 22 10 18 25 47 35 63 9 17 49 95 89 174 69 135 93 164 107 127z
m-4488 -61 c25 -17 29 -46 8 -63 -8 -7 -43 -16 -78 -22 -174 -27 -510 -178
-771 -348 -152 -98 -216 -128 -369 -175 -162 -49 -264 -62 -334 -41 -97 28
-81 40 151 105 266 75 320 97 459 190 347 231 661 368 846 369 44 1 73 -4 88
-15z m4473 -612 c148 -95 441 -431 620 -712 68 -107 189 -332 189 -351 0 -27
-32 2 -82 74 -190 272 -643 790 -790 904 -40 30 -58 51 -58 67 0 53 53 61 121
18z m-2390 -56 c167 -42 297 -115 401 -223 102 -107 127 -183 130 -398 2 -143
1 -153 -23 -205 -61 -128 -182 -244 -314 -299 -38 -16 -126 -44 -195 -62 -241
-62 -425 -36 -552 79 -47 42 -210 257 -240 317 -106 206 -79 422 72 588 172
189 460 270 721 203z m2496 -983 c78 -36 196 -156 245 -248 63 -120 91 -231
92 -370 0 -105 -2 -126 -23 -172 -74 -167 -233 -185 -384 -45 -151 142 -291
463 -257 592 38 145 79 213 152 249 57 28 106 26 175 -6z m1103 -535 c145
-233 340 -540 434 -683 264 -405 331 -516 430 -715 104 -209 143 -306 246
-605 80 -235 148 -387 214 -480 25 -34 90 -110 146 -169 83 -89 101 -113 98
-135 -2 -21 -9 -27 -35 -29 -27 -3 -42 8 -127 89 -53 51 -119 122 -147 158
-76 101 -160 281 -254 545 -183 512 -265 677 -649 1301 -262 425 -352 580
-515 890 -115 219 -131 255 -113 255 4 0 126 -190 272 -422z m-5176 334 c116
-40 187 -83 271 -167 120 -119 170 -253 163 -429 -8 -174 -66 -274 -196 -338
-60 -30 -77 -33 -173 -36 -84 -3 -124 0 -189 17 -102 25 -229 86 -292 139 -82
68 -195 200 -225 260 -25 52 -28 67 -28 162 0 100 2 109 34 175 61 123 180
217 312 245 83 17 227 5 323 -28z m1820 -1356 c141 -43 191 -137 155 -293 -36
-160 -66 -204 -168 -252 -45 -21 -71 -25 -137 -26 -79 0 -85 2 -197 57 -108
54 -118 61 -155 118 -61 91 -66 160 -17 246 29 50 81 91 148 116 118 45 285
60 371 34z m1456 -122 c89 -20 175 -75 235 -151 94 -118 173 -321 195 -501 29
-226 -55 -453 -209 -566 -58 -43 -201 -101 -283 -116 -156 -29 -329 60 -473
242 -190 241 -239 532 -126 756 70 139 176 241 306 295 52 21 82 29 190 51 44
8 99 5 165 -10z m1554 -338 c52 -22 105 -82 144 -164 31 -65 37 -89 40 -164 4
-84 3 -92 -27 -153 -44 -88 -86 -120 -160 -120 -202 2 -384 304 -291 485 22
43 51 71 110 104 52 30 130 35 184 12z m-3781 -501 c104 -27 165 -85 193 -183
38 -131 -28 -249 -170 -305 -71 -28 -205 -27 -300 3 -58 18 -79 32 -126 78
-83 84 -99 156 -56 247 59 129 282 206 459 160z m6715 -737 c-11 -33 -274
-116 -788 -248 -190 -49 -523 -138 -740 -198 -217 -61 -489 -136 -604 -167
-315 -85 -545 -154 -916 -275 -184 -59 -352 -113 -372 -118 -48 -13 -71 2 -66
43 4 39 38 57 238 130 422 154 676 232 1525 465 870 240 1267 333 1540 364
161 18 188 19 183 4z m-906 -465 c22 -19 23 -49 3 -60 -30 -17 -50 -183 -49
-408 0 -186 3 -226 27 -350 38 -195 58 -262 147 -490 176 -454 233 -684 232
-945 -1 -233 -23 -381 -148 -985 -121 -583 -180 -831 -206 -862 -24 -30 -32 8
-31 154 0 191 6 229 118 788 126 633 130 656 130 910 0 204 -1 214 -32 337
-42 164 -100 342 -179 550 -99 260 -136 403 -169 661 -19 149 -19 275 0 420
31 237 89 341 157 280z m-4602 -36 c25 -11 74 -51 110 -87 229 -230 197 -550
-59 -600 -31 -6 -70 -15 -87 -21 -17 -5 -58 -9 -91 -9 -114 0 -261 100 -324
221 -32 61 -32 146 -1 188 12 16 22 39 22 49 0 35 29 117 59 164 70 110 246
155 371 95z m-4479 -422 c108 -18 281 -76 388 -128 164 -79 267 -186 248 -258
-3 -11 5 -44 19 -72 31 -68 33 -153 3 -214 -34 -70 -171 -166 -284 -199 -79
-22 -275 -14 -384 16 -147 41 -290 128 -412 249 -241 242 -263 451 -60 560 34
18 89 38 124 46 83 18 255 18 358 0z m6324 -94 c7 -13 -58 -50 -175 -100 -90
-38 -653 -231 -1430 -491 -195 -65 -474 -153 -620 -195 -146 -42 -338 -99
-428 -127 -176 -56 -194 -56 -200 -4 -2 15 2 33 8 41 22 26 156 73 465 165
417 122 755 230 1147 366 556 192 944 311 1102 338 98 16 124 18 131 7z
m-4392 -539 c162 -57 253 -187 245 -346 -3 -60 -9 -82 -33 -121 -67 -107 -210
-141 -339 -82 -81 37 -173 105 -235 173 -137 150 -145 291 -18 349 127 59 262
68 380 27z m4449 -43 c104 -22 180 -83 194 -155 8 -45 -4 -72 -63 -141 -59
-69 -87 -83 -165 -83 -168 0 -335 172 -284 293 33 80 171 117 318 86z m1395
-5 c242 -50 418 -222 458 -449 27 -149 16 -245 -39 -360 -88 -182 -289 -285
-561 -288 -147 -1 -225 17 -353 79 -199 96 -312 265 -312 463 1 158 118 355
273 459 89 59 149 80 271 97 127 18 176 17 263 -1z m-4669 -320 c8 -16 9 -31
3 -43 -11 -20 -34 -32 -751 -414 -440 -233 -810 -461 -1560 -962 -566 -378
-1204 -786 -1690 -1080 -460 -278 -663 -428 -1255 -929 -54 -45 -60 -22 -11
45 145 200 399 440 700 664 132 98 274 190 531 347 257 156 962 596 1154 721
86 56 345 228 576 383 720 482 1087 703 1680 1012 589 305 599 310 623 256z
m2160 -4 c62 -27 99 -67 108 -118 3 -20 12 -56 20 -79 44 -137 -102 -224 -354
-210 -171 10 -309 56 -353 119 -89 124 42 264 289 308 85 16 231 6 290 -20z
m-1907 -156 c27 -32 49 -421 56 -959 9 -810 -18 -1482 -107 -2640 -80 -1037
-160 -1595 -228 -1595 -22 0 -10 270 33 720 84 877 148 1802 176 2510 18 440
17 1284 -1 1550 -19 275 -19 392 -1 413 17 21 55 22 72 1z m247 -40 c145 -60
566 -264 892 -433 615 -319 1062 -578 1740 -1009 273 -174 1520 -1000 1655
-1096 132 -94 245 -190 236 -199 -28 -28 -200 46 -423 184 -73 45 -389 252
-703 459 -1477 977 -2000 1282 -3313 1939 -134 67 -245 128 -249 137 -8 21 25
54 54 54 13 0 63 -16 111 -36z m-5048 -104 c174 -75 324 -239 383 -418 31 -93
52 -292 42 -387 -21 -192 -151 -398 -309 -490 -70 -41 -226 -85 -300 -85 -112
1 -183 51 -292 207 -132 190 -178 326 -178 528 0 185 29 292 125 460 67 117
81 132 165 170 95 44 95 44 209 41 79 -2 111 -7 155 -26z m2304 -326 c61 -30
109 -75 131 -121 35 -73 -14 -216 -63 -186 -12 7 -24 8 -33 2 -8 -5 -43 -9
-80 -9 -112 0 -212 67 -240 161 -11 37 -11 46 7 77 12 22 40 49 74 69 70 42
129 44 204 7z m3290 -248 c100 -49 149 -145 149 -291 0 -203 -106 -329 -278
-330 -59 0 -78 5 -124 30 -200 110 -231 429 -56 567 80 63 209 73 309 24z
m-1579 -10 c78 -20 147 -60 194 -111 53 -57 71 -100 71 -165 0 -67 -19 -109
-69 -152 -131 -112 -420 -76 -573 72 -71 69 -84 134 -43 217 35 69 106 122
192 142 58 14 172 12 228 -3z m4057 -129 c98 -36 203 -101 273 -171 67 -68
100 -125 117 -208 16 -75 -7 -137 -64 -178 -60 -44 -111 -48 -216 -15 -143 45
-224 95 -365 225 -80 74 -109 125 -109 191 0 68 56 150 122 178 40 17 167 6
242 -22z m1965 -465 c54 -28 118 -102 137 -159 69 -203 -124 -390 -340 -328
-119 34 -212 117 -240 213 -19 65 -13 104 24 163 70 110 300 171 419 111z
m-7260 -457 c87 -40 120 -118 85 -198 -23 -52 -45 -68 -128 -98 -118 -42 -163
-38 -223 19 -50 47 -78 134 -62 185 14 41 54 81 101 101 56 25 165 20 227 -9z
m3011 -84 c63 -28 119 -89 162 -174 26 -52 30 -71 30 -140 0 -100 -21 -181
-73 -281 -56 -108 -126 -177 -224 -223 -149 -69 -263 -54 -357 47 -85 90 -130
216 -131 360 0 79 3 101 20 125 10 17 32 56 47 89 48 100 112 163 206 203 50
21 69 23 162 20 83 -2 116 -8 158 -26z m-1868 -12 c270 -95 367 -400 204 -644
-46 -71 -112 -127 -194 -168 -62 -30 -71 -32 -180 -32 -112 0 -117 1 -194 38
-98 47 -208 152 -252 242 -26 54 -29 70 -29 160 0 88 3 107 27 158 65 138 219
245 393 271 53 7 168 -5 225 -25z m2966 -110 c18 -11 39 -35 48 -53 20 -42 21
-118 1 -155 -17 -34 -70 -81 -91 -81 -8 0 -26 -7 -40 -17 -33 -21 -102 -21
-135 0 -38 25 -54 63 -53 126 1 157 149 255 270 180z m-5566 -729 c149 -16
251 -43 358 -96 116 -57 191 -128 245 -233 32 -63 37 -82 37 -141 0 -111 -24
-158 -107 -207 -38 -22 -54 -25 -165 -26 -115 -2 -129 0 -218 31 -210 73 -428
197 -531 302 -100 102 -133 210 -88 289 55 99 148 115 469 81z m8984 7 c17
-12 15 -20 -23 -137 -42 -127 -78 -203 -96 -203 -5 0 -18 15 -28 34 -22 41
-18 112 13 211 29 93 83 132 134 95z m-1582 -57 c20 -6 63 -30 96 -54 100 -74
114 -150 58 -315 -48 -143 -132 -216 -245 -215 -144 1 -242 128 -228 294 17
209 156 335 319 290z m-1682 -61 c165 -57 250 -180 250 -359 0 -222 -139 -478
-308 -568 -105 -56 -237 -61 -339 -11 -97 47 -188 173 -214 297 -29 141 12
335 97 464 53 79 108 127 188 164 103 47 214 52 326 13z m-6960 -394 c191 -45
612 -323 1105 -730 234 -193 346 -281 745 -582 713 -537 1051 -751 1479 -935
181 -77 507 -194 624 -224 65 -16 106 -31 104 -38 -6 -20 -153 -31 -252 -18
-172 22 -439 112 -705 238 -304 145 -647 362 -1090 692 -465 346 -702 531
-1080 842 -161 133 -480 373 -605 457 -219 146 -303 183 -480 214 -145 25
-163 24 -196 -7 -32 -30 -49 -25 -49 15 0 32 32 78 64 92 30 13 259 2 336 -16z
m2940 -331 c97 -22 233 -93 345 -181 218 -171 318 -353 319 -583 1 -116 -18
-184 -74 -268 -80 -119 -202 -175 -385 -175 -176 0 -338 48 -524 155 -318 182
-465 430 -410 690 61 286 376 443 729 362z m6710 4 c0 -12 -11 -38 -25 -58
-57 -82 -207 -184 -623 -424 -569 -327 -954 -519 -1562 -776 -140 -59 -389
-167 -553 -239 -164 -72 -425 -184 -580 -247 -356 -147 -513 -217 -768 -345
-112 -56 -296 -144 -409 -196 -282 -131 -361 -171 -392 -200 l-26 -25 -21 21
c-28 28 -26 44 9 80 49 49 171 116 610 337 467 236 554 276 970 449 162 68
412 176 555 240 143 65 404 179 580 255 503 217 779 349 1158 557 224 122 627
352 743 424 88 54 305 168 322 169 6 0 12 -10 12 -22z"/>
</g>
</svg>
