<?xml version="1.0" standalone="no"?>
<!DOCTYPE svg PUBLIC "-//W3C//DTD SVG 20010904//EN"
 "http://www.w3.org/TR/2001/REC-SVG-20010904/DTD/svg10.dtd">
<svg version="1.0" xmlns="http://www.w3.org/2000/svg"
 width="792.000000pt" height="792.000000pt" viewBox="0 0 792.000000 792.000000"
 preserveAspectRatio="xMidYMid meet">

<g transform="translate(0.000000,792.000000) scale(0.100000,-0.100000)"
fill="#59545f" stroke="none">
<path d="M3904 7191 c-27 -16 -34 -17 -55 -5 -35 19 -84 17 -132 -7 -94 -47
-124 -100 -138 -238 -6 -53 -19 -168 -30 -256 -42 -347 -50 -456 -63 -885 -15
-470 -8 -1226 14 -1520 15 -206 67 -676 95 -865 13 -88 36 -257 50 -375 14
-118 28 -226 32 -239 5 -19 3 -22 -10 -15 -28 16 -301 261 -363 326 -64 67
-185 234 -372 513 -158 235 -380 539 -451 619 -53 59 -101 86 -151 86 -57 0
-151 -39 -174 -72 -24 -34 -20 -94 11 -147 17 -29 27 -62 28 -91 1 -38 17 -71
90 -195 118 -200 176 -285 368 -542 217 -290 395 -504 531 -638 61 -60 134
-139 161 -175 180 -239 284 -339 414 -398 108 -49 255 -41 381 23 45 23 130
105 130 125 0 6 37 48 81 93 169 170 336 415 715 1044 313 521 365 628 348
720 -9 47 -61 100 -108 108 -64 12 -106 -8 -192 -92 -44 -42 -257 -246 -474
-453 -217 -208 -428 -412 -469 -454 -40 -42 -76 -74 -79 -71 -23 23 -6 906 25
1225 27 284 33 1898 10 2440 -15 343 -17 353 -77 404 -38 32 -100 35 -146 7z"/>
<path d="M7199 2611 c-38 -12 -120 -60 -152 -90 -57 -52 -75 -118 -102 -381
-8 -85 -20 -177 -26 -205 -5 -27 -16 -99 -24 -160 -32 -245 -68 -344 -143
-402 -74 -56 -123 -65 -312 -53 -215 13 -760 13 -986 0 -99 -6 -305 -22 -459
-35 -154 -14 -372 -30 -485 -35 -113 -6 -277 -15 -365 -21 -381 -26 -550 -22
-834 22 -121 19 -166 21 -420 16 -362 -6 -552 -27 -1001 -111 -75 -14 -196
-30 -270 -36 -74 -6 -196 -18 -270 -27 -160 -18 -300 -13 -363 15 -62 28 -113
92 -174 219 -64 132 -92 253 -118 501 -28 270 -43 315 -107 320 -50 4 -92 -20
-113 -64 -35 -74 -60 -337 -71 -749 -9 -333 7 -426 91 -510 48 -47 140 -91
236 -111 110 -23 815 -14 1134 14 430 39 641 45 1290 38 672 -8 1139 -19 1520
-37 158 -7 404 -9 670 -5 341 4 451 3 585 -10 129 -13 238 -15 500 -11 350 6
420 13 527 56 29 11 89 30 134 41 141 36 202 77 246 168 l28 57 6 290 c4 160
12 487 19 728 11 434 11 438 -9 480 -34 69 -116 108 -182 88z"/>
</g>
</svg>
