<?xml version="1.0" standalone="no"?>
<!DOCTYPE svg PUBLIC "-//W3C//DTD SVG 20010904//EN"
 "http://www.w3.org/TR/2001/REC-SVG-20010904/DTD/svg10.dtd">
<svg version="1.0" xmlns="http://www.w3.org/2000/svg"
 width="4752.000000pt" height="1584.000000pt" viewBox="0 0 4752.000000 1584.000000"
 preserveAspectRatio="xMidYMid meet">

<g transform="translate(0.000000,1584.000000) scale(0.100000,-0.100000)"
fill="#59545f" stroke="none">
<path d="M38410 15743 c-19 -2 -136 -17 -260 -33 -335 -44 -407 -50 -734 -60
-322 -11 -759 -34 -946 -50 -63 -6 -290 -33 -505 -60 -519 -66 -632 -77 -912
-95 -290 -18 -331 -21 -558 -45 -400 -43 -730 -60 -1160 -60 -394 0 -598 15
-1185 85 -330 39 -579 49 -1265 50 -538 1 -986 18 -1315 50 -659 63 -1178 78
-2705 77 -1000 0 -1185 -2 -1340 -16 -186 -17 -587 -32 -1135 -42 -297 -5
-326 -4 -515 20 -290 37 -429 46 -694 46 -160 0 -315 7 -481 21 -237 21 -265
22 -845 11 -330 -6 -733 -10 -895 -9 -393 1 -494 -10 -953 -107 -92 -20 -256
-48 -365 -63 -170 -23 -232 -27 -457 -27 -308 0 -1303 20 -1360 28 -22 3 -193
13 -380 21 -546 24 -741 34 -1075 55 -173 11 -486 24 -695 30 -209 5 -510 15
-670 21 -331 14 -755 2 -1120 -31 -520 -48 -1490 -48 -1905 0 -553 64 -1604
86 -2150 45 -670 -51 -2802 -90 -3080 -57 -52 6 -153 19 -225 28 -110 14 -274
17 -1075 20 -520 1 -1010 8 -1090 13 -80 6 -201 13 -270 16 -69 3 -235 13
-370 22 -206 14 -276 15 -445 5 -110 -6 -234 -18 -276 -26 -119 -23 -680 -24
-774 -2 -54 13 -108 17 -235 15 -171 -2 -181 -3 -395 -38 -132 -21 -337 -70
-397 -95 -169 -71 -409 -230 -481 -319 -39 -47 -179 -302 -201 -365 -25 -69
-53 -265 -116 -792 -75 -633 -67 -547 -90 -940 -23 -383 -37 -537 -86 -948
-49 -418 -55 -544 -52 -1069 2 -346 0 -478 -9 -507 -10 -31 -9 -120 2 -425 40
-1092 42 -1307 19 -1867 -12 -310 -13 -432 -4 -669 26 -678 70 -1323 120
-1722 61 -498 66 -619 51 -1149 -14 -480 1 -2650 19 -2784 26 -189 116 -482
201 -654 71 -141 131 -226 241 -342 106 -110 196 -176 312 -230 101 -46 173
-61 356 -74 319 -22 518 -52 638 -96 75 -27 119 -36 225 -45 185 -15 1156 -15
1222 1 30 7 159 13 325 15 151 2 372 9 490 15 236 13 393 10 920 -21 424 -24
521 -32 875 -69 154 -16 395 -37 535 -45 140 -9 372 -26 515 -40 830 -78 1405
-100 1889 -75 105 6 510 17 899 25 390 8 712 17 715 19 17 10 640 27 1132 31
300 2 725 8 945 14 220 6 558 15 750 21 193 5 359 11 370 14 49 13 384 37 526
38 138 0 161 -2 203 -21 43 -19 67 -21 218 -21 98 0 268 9 406 23 214 20 284
22 717 19 334 -1 571 3 780 14 319 16 379 15 890 -16 171 -11 409 -24 530 -30
808 -38 2194 -12 3480 65 346 21 710 33 1380 45 945 18 1294 28 1761 55 551
31 888 43 1564 56 294 5 578 14 630 19 178 16 482 23 530 11 25 -6 169 -16
320 -21 364 -12 1263 -72 1725 -115 204 -19 512 -46 685 -59 807 -65 2115 -92
2550 -53 710 63 1306 79 1975 52 342 -14 616 -17 1340 -15 1438 3 2300 -4
2365 -19 62 -15 101 -33 147 -67 31 -24 33 -24 450 -35 913 -24 1083 -26 1335
-15 193 7 314 7 485 -3 146 -8 454 -12 858 -10 510 1 666 -1 820 -15 105 -9
260 -16 345 -16 85 0 232 -7 325 -14 107 -9 347 -16 650 -18 l480 -3 200 29
c187 28 220 30 510 30 387 0 1328 -19 1342 -27 20 -12 200 15 351 54 255 65
352 130 432 292 l44 88 9 222 c9 203 8 235 -12 382 -11 88 -21 212 -21 275 0
63 -9 200 -21 305 -13 122 -19 227 -16 295 17 411 31 618 49 720 11 63 23 178
28 255 4 77 16 183 26 235 16 84 18 159 19 630 0 369 -4 583 -13 689 -15 163
-10 321 24 771 25 348 28 555 10 795 -31 416 -36 653 -30 1326 4 470 3 709 -6
819 -6 85 -15 299 -20 475 -9 312 -27 597 -52 780 -7 61 -11 263 -10 620 0
586 9 724 62 1010 24 133 31 205 40 425 17 445 12 690 -30 1425 -6 99 -15 329
-20 510 -14 494 -56 899 -104 1013 -59 139 -155 277 -302 432 -108 113 -99
108 -309 144 -110 19 -193 26 -390 31 -290 7 -540 19 -815 40 -107 8 -325 22
-485 30 -299 16 -326 18 -730 61 -168 17 -341 27 -580 34 -225 6 -428 17 -600
34 -173 17 -384 29 -630 36 -203 5 -442 17 -530 25 -88 9 -362 22 -610 31
-247 8 -463 17 -480 19 -16 3 -160 19 -318 36 -262 27 -324 30 -685 33 -337 2
-421 6 -552 24 -343 46 -604 62 -760 45z m-16390 -3865 c86 -44 109 -150 110
-503 1 -189 -32 -99 265 -740 120 -258 284 -625 365 -815 81 -190 210 -475
285 -635 75 -159 186 -396 245 -525 97 -212 166 -357 359 -764 34 -71 64 -126
67 -123 3 2 0 60 -5 128 -23 284 -46 845 -56 1369 -13 695 -53 1414 -111 1995
-33 325 -33 439 -3 501 40 84 130 111 188 57 32 -30 57 -102 106 -303 97 -399
169 -1177 195 -2115 36 -1331 69 -1753 192 -2523 38 -236 41 -267 30 -309 -17
-61 -45 -99 -92 -123 -84 -43 -189 -14 -239 66 -27 41 -41 89 -66 221 -5 24
-17 38 -49 57 -53 31 -87 84 -154 236 -28 63 -138 288 -244 500 -107 212 -242
489 -301 615 -58 127 -165 358 -238 515 -72 157 -174 377 -226 490 -53 113
-157 354 -233 535 -76 182 -156 371 -179 420 -59 130 -61 171 40 -750 67 -614
84 -761 134 -1115 71 -507 155 -1314 155 -1492 0 -113 -31 -169 -113 -203 -68
-28 -136 -14 -191 41 -61 61 -64 79 -116 625 -23 239 -57 553 -76 699 -19 146
-51 381 -70 523 -39 299 -156 1393 -178 1672 -22 286 -26 358 -42 765 -8 206
-17 404 -20 439 -4 45 -2 74 9 100 10 24 17 85 21 181 6 164 15 206 53 251 51
60 112 73 183 37z m-7330 -126 c109 -43 160 -106 160 -198 0 -41 -5 -51 -39
-85 -21 -22 -47 -39 -57 -40 -11 0 -107 -2 -214 -3 -286 -5 -497 -46 -708
-138 -219 -96 -357 -202 -543 -414 -192 -221 -281 -364 -314 -507 -19 -81 -11
-138 37 -291 51 -163 65 -172 358 -257 250 -72 354 -96 755 -179 527 -108 642
-143 795 -245 124 -82 324 -287 452 -462 139 -189 258 -529 274 -780 8 -127
-7 -228 -55 -372 -84 -251 -160 -391 -268 -497 -123 -121 -434 -314 -783 -488
-440 -219 -624 -273 -885 -264 -302 12 -852 191 -1009 329 -112 99 -128 260
-32 321 49 31 148 21 261 -27 221 -93 314 -128 426 -160 352 -101 487 -100
757 7 127 50 456 212 597 293 159 91 379 240 415 282 38 43 104 177 150 308
27 73 33 110 37 195 4 93 1 118 -25 220 -36 141 -80 255 -129 339 -51 86 -170
227 -285 338 -158 152 -208 170 -763 284 -548 112 -929 215 -1092 294 -171 84
-263 211 -332 457 -71 257 -65 392 29 611 74 170 167 304 380 542 214 241 451
402 740 505 222 79 417 110 675 106 157 -2 187 -5 235 -24z m4952 -7 c75 -53
109 -156 73 -225 -22 -42 -53 -60 -107 -60 -45 0 -52 -4 -118 -67 -166 -156
-245 -327 -355 -773 -157 -635 -209 -1059 -210 -1710 0 -306 3 -401 18 -515
69 -529 195 -934 353 -1135 88 -113 245 -220 321 -220 164 0 371 323 419 652
17 121 33 170 65 204 14 15 19 32 17 55 -4 41 1 41 -169 5 -141 -29 -271 -34
-322 -12 -151 64 -127 265 36 310 29 8 138 38 242 66 105 29 253 72 330 97
176 57 251 64 314 31 55 -28 81 -62 88 -116 10 -77 -42 -155 -143 -213 l-51
-29 48 -194 c69 -280 140 -634 146 -735 5 -74 3 -94 -14 -133 -42 -93 -140
-131 -228 -88 -54 26 -89 74 -115 157 l-18 58 -18 -33 c-122 -217 -282 -370
-461 -439 -93 -35 -219 -37 -313 -5 -91 31 -206 96 -298 170 -140 110 -239
240 -331 434 -146 306 -257 783 -292 1263 -21 293 0 882 47 1270 51 429 199
1057 320 1358 109 272 286 486 479 579 52 25 69 29 132 26 60 -3 78 -8 115
-33z m-2426 -86 c55 -26 84 -69 84 -124 0 -112 -91 -162 -371 -206 -79 -12
-145 -23 -147 -24 -2 -2 2 -40 7 -86 17 -134 39 -491 61 -959 11 -239 27 -523
35 -631 43 -575 60 -938 85 -1794 6 -198 15 -502 20 -676 6 -174 10 -339 10
-366 l0 -50 173 1 c159 1 176 -1 222 -22 104 -48 135 -108 94 -181 -47 -85
-159 -137 -356 -166 -80 -11 -111 -20 -118 -33 -5 -9 -28 -36 -50 -59 -68 -69
-163 -67 -238 5 l-28 27 -217 0 c-207 0 -219 1 -265 23 -111 55 -131 196 -38
275 38 32 91 43 280 62 85 8 156 16 157 18 4 4 -33 1366 -51 1882 -8 237 -22
527 -30 645 -39 562 -46 681 -60 1050 -27 732 -37 975 -40 986 -2 7 -45 5
-136 -8 -166 -22 -270 -23 -308 -3 -104 53 -119 182 -31 258 85 72 412 133
980 181 106 9 229 -2 276 -25z m14014 -60 c47 -26 86 -87 99 -153 18 -92 31
-275 41 -611 11 -360 16 -437 60 -875 41 -405 65 -700 95 -1140 14 -206 44
-586 66 -845 63 -730 66 -1240 8 -1376 -22 -51 -82 -113 -125 -129 -43 -17
-115 -11 -162 11 -52 25 -88 72 -148 191 -24 47 -91 157 -149 243 -89 132
-144 235 -357 662 -138 278 -297 585 -353 682 -371 647 -1182 2010 -1195 2011
-14 1 55 -676 130 -1276 88 -717 127 -1155 135 -1539 3 -121 10 -311 17 -422
13 -234 8 -267 -47 -309 -94 -72 -228 -20 -286 112 -38 84 -49 174 -59 454
-18 505 -58 984 -130 1580 -80 658 -109 953 -145 1475 -40 588 -55 856 -55
1005 0 122 3 146 20 181 27 51 72 79 130 79 92 0 145 -67 174 -218 7 -38 23
-82 34 -98 12 -16 26 -52 32 -81 11 -59 162 -377 265 -558 37 -66 145 -246
240 -400 339 -551 691 -1144 1056 -1776 59 -102 222 -416 363 -697 141 -282
260 -512 264 -512 10 0 -2 202 -48 750 -22 267 -51 654 -65 860 -29 420 -42
583 -85 1010 -48 476 -50 507 -65 900 -8 206 -19 436 -26 510 -7 74 -9 151 -5
171 9 49 55 111 97 132 48 24 133 22 179 -4z m-4620 -79 c146 -17 220 -73 220
-169 0 -107 -80 -156 -278 -168 -56 -3 -105 -9 -107 -12 -2 -4 5 -126 16 -271
39 -550 92 -1046 184 -1755 136 -1046 204 -1718 205 -2022 0 -45 4 -84 8 -87
4 -2 81 -1 170 4 250 15 375 -10 442 -87 57 -64 31 -147 -67 -212 -97 -64
-178 -77 -583 -92 -391 -14 -630 -9 -685 15 -151 65 -166 251 -27 334 46 27
49 27 199 24 95 -2 153 0 157 7 12 19 -15 447 -50 796 -41 408 -76 710 -144
1250 -77 603 -110 914 -144 1355 -21 259 -38 667 -31 702 l7 28 -59 0 c-32 0
-98 5 -148 10 -113 13 -164 41 -195 105 -31 63 -21 117 31 167 52 50 81 55
449 81 106 8 352 6 430 -3z"/>
<path d="M25348 3 c7 -3 16 -2 19 1 4 3 -2 6 -13 5 -11 0 -14 -3 -6 -6z"/>
</g>
</svg>
