<?xml version="1.0" standalone="no"?>
<!DOCTYPE svg PUBLIC "-//W3C//DTD SVG 20010904//EN"
 "http://www.w3.org/TR/2001/REC-SVG-20010904/DTD/svg10.dtd">
<svg version="1.0" xmlns="http://www.w3.org/2000/svg"
 width="792.000000pt" height="792.000000pt" viewBox="0 0 792.000000 792.000000"
 preserveAspectRatio="xMidYMid meet">

<g transform="translate(0.000000,792.000000) scale(0.100000,-0.100000)"
fill="#fa0505" stroke="none">
<path d="M3785 7711 c-128 -62 -155 -103 -243 -361 -33 -96 -89 -254 -125
-350 -36 -96 -106 -294 -156 -440 -50 -146 -113 -321 -141 -390 -27 -69 -75
-205 -107 -302 l-57 -177 -41 -6 c-76 -10 -350 -25 -645 -35 -790 -28 -1013
-41 -1248 -75 -319 -47 -461 -98 -519 -187 -23 -34 -28 -52 -27 -102 1 -146
95 -223 540 -441 348 -171 426 -215 876 -503 205 -131 433 -276 506 -321 72
-46 132 -87 132 -92 0 -5 -27 -122 -60 -260 -80 -331 -94 -407 -205 -1054
-130 -761 -163 -1062 -123 -1145 9 -19 19 -53 23 -74 13 -79 99 -126 191 -106
59 14 103 40 174 105 30 28 91 77 135 109 111 82 179 142 420 371 115 110 273
258 350 329 77 71 231 219 342 329 126 125 207 198 216 194 31 -12 476 -341
612 -452 55 -46 159 -124 230 -175 72 -51 209 -157 305 -235 352 -284 605
-465 735 -526 130 -61 235 -34 280 74 18 44 19 81 0 127 -7 19 -36 94 -65 165
-28 72 -71 198 -97 280 -25 83 -71 220 -103 305 -121 323 -191 560 -341 1145
-39 154 -102 369 -139 478 l-69 197 317 303 c791 754 1015 951 1312 1147 189
125 220 160 220 245 0 83 -50 142 -142 170 -95 28 -309 38 -556 26 -337 -17
-559 -35 -1277 -106 -357 -36 -653 -61 -658 -56 -4 4 -25 75 -46 157 -44 168
-112 399 -141 478 -29 77 -102 348 -145 536 -147 648 -156 673 -260 721 -58
27 -91 23 -180 -20z m1565 -5461 c0 -5 -2 -10 -4 -10 -3 0 -8 5 -11 10 -3 6
-1 10 4 10 6 0 11 -4 11 -10z"/>
</g>
</svg>
